%
M48
M72
T01C0.0120
T02C0.0138
T03C0.0276
T04C0.0350
T05C0.0400
T06C0.0551
%
T01
X25950Y5850
X26750Y4550
X27350Y3850
X28950Y6450
X30150Y5950
X55850Y4150
T02
X42577Y16540
X28350Y8550
X18450Y11250
X9250Y11450
T03
X22370Y23750
X24930Y23750
T04
X36577Y17540
X37577Y17540
X37577Y16540
X36577Y16540
X38577Y16540
X38577Y17540
X39577Y17540
X39577Y16540
X40577Y16540
X40577Y17540
X41577Y17540
X41577Y16540
X42577Y16540
X42577Y17540
X43577Y17540
X44577Y17540
X44577Y16540
X43577Y16540
X45577Y16540
X45577Y17540
X46577Y17540
X46577Y16540
X47577Y16540
X47577Y17540
X48577Y17540
X48577Y16540
X49577Y16540
X49577Y17540
X50577Y17540
X50577Y16540
X51577Y16540
X51577Y17540
X52577Y17540
X52577Y16540
X53577Y16540
X53577Y17540
X53577Y7540
X52577Y7540
X51577Y7540
X50577Y7540
X49577Y7540
X48577Y7540
X47577Y7540
X46577Y7540
X45577Y7540
X44577Y7540
X43577Y7540
X42577Y7540
X41577Y7540
X40577Y7540
X39577Y7540
X38577Y7540
X37577Y7540
X36577Y7540
X36577Y6540
X37577Y6540
X38577Y6540
X39577Y6540
X40577Y6540
X41577Y6540
X42577Y6540
X43577Y6540
X44577Y6540
X45577Y6540
X46577Y6540
X47577Y6540
X48577Y6540
X49577Y6540
X50577Y6540
X51577Y6540
X52577Y6540
X53577Y6540
T05
X43100Y29650
X42100Y29650
X41100Y29650
X40100Y29650
X39100Y29650
X38100Y29650
X19300Y29650
X18300Y29650
X17300Y29650
X16300Y29650
X15300Y29650
X14300Y29650
T06
X1889Y10366
X1889Y12334
X6811Y12334
X6811Y10366
X11489Y10366
X11489Y12334
X16411Y12334
X16411Y10366
X20689Y10366
X20689Y12334
X25611Y12334
X25611Y10366
X16411Y4834
X16411Y2866
X11489Y2866
X11489Y4834
X11489Y17866
X11489Y19834
X16411Y19834
X16411Y17866
X31489Y22866
X31489Y24834
X36411Y24834
X36411Y22866
M30
