G75*
%MOIN*%
%OFA0B0*%
%FSLAX25Y25*%
%IPPOS*%
%LPD*%
%AMOC8*
5,1,8,0,0,1.08239X$1,22.5*
%
%ADD10R,0.08268X0.08268*%
%ADD11R,0.04756X0.04756*%
%ADD12C,0.06000*%
%ADD13R,0.06000X0.06000*%
%ADD14OC8,0.06000*%
%ADD15C,0.03200*%
%ADD16C,0.03378*%
%ADD17C,0.01000*%
D10*
X0018894Y0103657D03*
X0018894Y0123343D03*
X0068106Y0123343D03*
X0068106Y0103657D03*
X0114894Y0103657D03*
X0114894Y0123343D03*
X0164106Y0123343D03*
X0164106Y0103657D03*
X0206894Y0103657D03*
X0206894Y0123343D03*
X0256106Y0123343D03*
X0256106Y0103657D03*
X0164106Y0048343D03*
X0164106Y0028657D03*
X0114894Y0028657D03*
X0114894Y0048343D03*
X0114894Y0178657D03*
X0114894Y0198343D03*
X0164106Y0198343D03*
X0164106Y0178657D03*
X0314894Y0228657D03*
X0314894Y0248343D03*
X0364106Y0248343D03*
X0364106Y0228657D03*
D11*
X0249295Y0237500D03*
X0223705Y0237500D03*
D12*
X0193000Y0296500D03*
X0183000Y0296500D03*
X0173000Y0296500D03*
X0163000Y0296500D03*
X0153000Y0296500D03*
X0143000Y0296500D03*
X0381000Y0296500D03*
X0391000Y0296500D03*
X0401000Y0296500D03*
X0411000Y0296500D03*
X0421000Y0296500D03*
X0431000Y0296500D03*
D13*
X0365768Y0165398D03*
X0365768Y0065398D03*
D14*
X0375768Y0065398D03*
X0375768Y0075398D03*
X0365768Y0075398D03*
X0385768Y0075398D03*
X0395768Y0075398D03*
X0405768Y0075398D03*
X0415768Y0075398D03*
X0425768Y0075398D03*
X0435768Y0075398D03*
X0445768Y0075398D03*
X0455768Y0075398D03*
X0465768Y0075398D03*
X0475768Y0075398D03*
X0485768Y0075398D03*
X0495768Y0075398D03*
X0505768Y0075398D03*
X0515768Y0075398D03*
X0525768Y0075398D03*
X0535768Y0075398D03*
X0535768Y0065398D03*
X0525768Y0065398D03*
X0515768Y0065398D03*
X0505768Y0065398D03*
X0495768Y0065398D03*
X0485768Y0065398D03*
X0475768Y0065398D03*
X0465768Y0065398D03*
X0455768Y0065398D03*
X0445768Y0065398D03*
X0435768Y0065398D03*
X0425768Y0065398D03*
X0415768Y0065398D03*
X0405768Y0065398D03*
X0395768Y0065398D03*
X0385768Y0065398D03*
X0385768Y0165398D03*
X0385768Y0175398D03*
X0395768Y0175398D03*
X0395768Y0165398D03*
X0405768Y0165398D03*
X0405768Y0175398D03*
X0415768Y0175398D03*
X0415768Y0165398D03*
X0425768Y0165398D03*
X0425768Y0175398D03*
X0435768Y0175398D03*
X0445768Y0175398D03*
X0445768Y0165398D03*
X0435768Y0165398D03*
X0455768Y0165398D03*
X0455768Y0175398D03*
X0465768Y0175398D03*
X0465768Y0165398D03*
X0475768Y0165398D03*
X0475768Y0175398D03*
X0485768Y0175398D03*
X0485768Y0165398D03*
X0495768Y0165398D03*
X0495768Y0175398D03*
X0505768Y0175398D03*
X0505768Y0165398D03*
X0515768Y0165398D03*
X0515768Y0175398D03*
X0525768Y0175398D03*
X0525768Y0165398D03*
X0535768Y0165398D03*
X0535768Y0175398D03*
X0375768Y0175398D03*
X0365768Y0175398D03*
X0375768Y0165398D03*
D15*
X0289500Y0064500D03*
X0301500Y0059500D03*
X0273500Y0038500D03*
X0267500Y0045500D03*
X0259500Y0058500D03*
X0558500Y0041500D03*
D16*
X0425768Y0165398D03*
X0283500Y0085500D03*
X0184500Y0112500D03*
X0092500Y0114500D03*
D17*
X0147500Y0294636D02*
X0363636Y0081500D01*
X0379665Y0081500D01*
X0385768Y0075398D01*
X0395768Y0075398D02*
X0384665Y0086500D01*
X0366000Y0086500D01*
X0153000Y0296500D01*
X0148500Y0297500D02*
X0147500Y0294636D01*
X0148500Y0297500D02*
X0148636Y0298500D01*
X0152136Y0302000D01*
X0158500Y0302000D01*
X0163000Y0296500D01*
X0173000Y0296500D02*
X0380000Y0089500D01*
X0403500Y0089500D01*
X0415768Y0077232D01*
X0415768Y0075398D01*
X0425768Y0125398D02*
X0475768Y0075398D01*
X0425768Y0125398D02*
X0425768Y0165398D01*
X0425768Y0169034D01*
X0430268Y0173534D01*
X0430268Y0250232D01*
X0381000Y0296500D01*
M02*
