G75*
%MOIN*%
%OFA0B0*%
%FSLAX25Y25*%
%IPPOS*%
%LPD*%
%AMOC8*
5,1,8,0,0,1.08239X$1,22.5*
%
%ADD10R,0.08868X0.08868*%
%ADD11R,0.05356X0.05356*%
%ADD12C,0.06600*%
%ADD13R,0.06600X0.06600*%
%ADD14OC8,0.06600*%
D10*
X0018894Y0103657D03*
X0018894Y0123343D03*
X0068106Y0123343D03*
X0068106Y0103657D03*
X0114894Y0103657D03*
X0114894Y0123343D03*
X0164106Y0123343D03*
X0164106Y0103657D03*
X0206894Y0103657D03*
X0206894Y0123343D03*
X0256106Y0123343D03*
X0256106Y0103657D03*
X0164106Y0048343D03*
X0164106Y0028657D03*
X0114894Y0028657D03*
X0114894Y0048343D03*
X0114894Y0178657D03*
X0114894Y0198343D03*
X0164106Y0198343D03*
X0164106Y0178657D03*
X0314894Y0228657D03*
X0314894Y0248343D03*
X0364106Y0248343D03*
X0364106Y0228657D03*
D11*
X0249295Y0237500D03*
X0223705Y0237500D03*
D12*
X0193000Y0296500D03*
X0183000Y0296500D03*
X0173000Y0296500D03*
X0163000Y0296500D03*
X0153000Y0296500D03*
X0143000Y0296500D03*
X0381000Y0296500D03*
X0391000Y0296500D03*
X0401000Y0296500D03*
X0411000Y0296500D03*
X0421000Y0296500D03*
X0431000Y0296500D03*
D13*
X0365768Y0165398D03*
X0365768Y0065398D03*
D14*
X0375768Y0065398D03*
X0375768Y0075398D03*
X0365768Y0075398D03*
X0385768Y0075398D03*
X0395768Y0075398D03*
X0405768Y0075398D03*
X0415768Y0075398D03*
X0425768Y0075398D03*
X0435768Y0075398D03*
X0445768Y0075398D03*
X0455768Y0075398D03*
X0465768Y0075398D03*
X0475768Y0075398D03*
X0485768Y0075398D03*
X0495768Y0075398D03*
X0505768Y0075398D03*
X0515768Y0075398D03*
X0525768Y0075398D03*
X0535768Y0075398D03*
X0535768Y0065398D03*
X0525768Y0065398D03*
X0515768Y0065398D03*
X0505768Y0065398D03*
X0495768Y0065398D03*
X0485768Y0065398D03*
X0475768Y0065398D03*
X0465768Y0065398D03*
X0455768Y0065398D03*
X0445768Y0065398D03*
X0435768Y0065398D03*
X0425768Y0065398D03*
X0415768Y0065398D03*
X0405768Y0065398D03*
X0395768Y0065398D03*
X0385768Y0065398D03*
X0385768Y0165398D03*
X0385768Y0175398D03*
X0395768Y0175398D03*
X0395768Y0165398D03*
X0405768Y0165398D03*
X0405768Y0175398D03*
X0415768Y0175398D03*
X0415768Y0165398D03*
X0425768Y0165398D03*
X0425768Y0175398D03*
X0435768Y0175398D03*
X0445768Y0175398D03*
X0445768Y0165398D03*
X0435768Y0165398D03*
X0455768Y0165398D03*
X0455768Y0175398D03*
X0465768Y0175398D03*
X0465768Y0165398D03*
X0475768Y0165398D03*
X0475768Y0175398D03*
X0485768Y0175398D03*
X0485768Y0165398D03*
X0495768Y0165398D03*
X0495768Y0175398D03*
X0505768Y0175398D03*
X0505768Y0165398D03*
X0515768Y0165398D03*
X0515768Y0175398D03*
X0525768Y0175398D03*
X0525768Y0165398D03*
X0535768Y0165398D03*
X0535768Y0175398D03*
X0375768Y0175398D03*
X0365768Y0175398D03*
X0375768Y0165398D03*
M02*
