G75*
%MOIN*%
%OFA0B0*%
%FSLAX25Y25*%
%IPPOS*%
%LPD*%
%AMOC8*
5,1,8,0,0,1.08239X$1,22.5*
%
%ADD10R,0.03150X0.03150*%
%ADD11R,0.02400X0.02000*%
%ADD12R,0.02000X0.02400*%
%ADD13R,0.03740X0.04060*%
%ADD14R,0.04060X0.03740*%
%ADD15C,0.00591*%
D10*
X0538398Y0014500D03*
X0550602Y0014500D03*
X0550602Y0029500D03*
X0550602Y0041500D03*
X0538398Y0041500D03*
X0538398Y0029500D03*
D11*
X0283700Y0038500D03*
X0279300Y0038500D03*
X0265700Y0038500D03*
X0261300Y0038500D03*
D12*
X0301500Y0049300D03*
X0301500Y0053700D03*
D13*
X0091350Y0048500D03*
X0097650Y0048500D03*
X0099350Y0123500D03*
X0105650Y0123500D03*
X0085650Y0124500D03*
X0079350Y0124500D03*
X0187350Y0124500D03*
X0193650Y0124500D03*
X0271350Y0069500D03*
X0277650Y0069500D03*
X0283350Y0077500D03*
X0289650Y0077500D03*
X0505350Y0014500D03*
X0511650Y0014500D03*
X0516350Y0029500D03*
X0522650Y0029500D03*
X0526350Y0041500D03*
X0532650Y0041500D03*
D14*
X0097500Y0191350D03*
X0097500Y0197650D03*
D15*
X0275708Y0055535D02*
X0277480Y0055535D01*
X0277480Y0055339D01*
X0275708Y0055339D01*
X0275708Y0055535D01*
X0275708Y0053960D02*
X0277480Y0053960D01*
X0277480Y0053764D01*
X0275708Y0053764D01*
X0275708Y0053960D01*
X0275708Y0052385D02*
X0277480Y0052385D01*
X0277480Y0052189D01*
X0275708Y0052189D01*
X0275708Y0052385D01*
X0275708Y0050811D02*
X0277480Y0050811D01*
X0277480Y0050615D01*
X0275708Y0050615D01*
X0275708Y0050811D01*
X0275708Y0049236D02*
X0277480Y0049236D01*
X0277480Y0049040D01*
X0275708Y0049040D01*
X0275708Y0049236D01*
X0275708Y0047661D02*
X0277480Y0047661D01*
X0277480Y0047465D01*
X0275708Y0047465D01*
X0275708Y0047661D01*
X0278465Y0046480D02*
X0278465Y0044708D01*
X0278465Y0046480D02*
X0278661Y0046480D01*
X0278661Y0044708D01*
X0278465Y0044708D01*
X0278465Y0045298D02*
X0278661Y0045298D01*
X0278661Y0045888D02*
X0278465Y0045888D01*
X0278465Y0046478D02*
X0278661Y0046478D01*
X0280040Y0046480D02*
X0280040Y0044708D01*
X0280040Y0046480D02*
X0280236Y0046480D01*
X0280236Y0044708D01*
X0280040Y0044708D01*
X0280040Y0045298D02*
X0280236Y0045298D01*
X0280236Y0045888D02*
X0280040Y0045888D01*
X0280040Y0046478D02*
X0280236Y0046478D01*
X0281615Y0046480D02*
X0281615Y0044708D01*
X0281615Y0046480D02*
X0281811Y0046480D01*
X0281811Y0044708D01*
X0281615Y0044708D01*
X0281615Y0045298D02*
X0281811Y0045298D01*
X0281811Y0045888D02*
X0281615Y0045888D01*
X0281615Y0046478D02*
X0281811Y0046478D01*
X0283189Y0046480D02*
X0283189Y0044708D01*
X0283189Y0046480D02*
X0283385Y0046480D01*
X0283385Y0044708D01*
X0283189Y0044708D01*
X0283189Y0045298D02*
X0283385Y0045298D01*
X0283385Y0045888D02*
X0283189Y0045888D01*
X0283189Y0046478D02*
X0283385Y0046478D01*
X0284764Y0046480D02*
X0284764Y0044708D01*
X0284764Y0046480D02*
X0284960Y0046480D01*
X0284960Y0044708D01*
X0284764Y0044708D01*
X0284764Y0045298D02*
X0284960Y0045298D01*
X0284960Y0045888D02*
X0284764Y0045888D01*
X0284764Y0046478D02*
X0284960Y0046478D01*
X0286339Y0046480D02*
X0286339Y0044708D01*
X0286339Y0046480D02*
X0286535Y0046480D01*
X0286535Y0044708D01*
X0286339Y0044708D01*
X0286339Y0045298D02*
X0286535Y0045298D01*
X0286535Y0045888D02*
X0286339Y0045888D01*
X0286339Y0046478D02*
X0286535Y0046478D01*
X0287520Y0047465D02*
X0289292Y0047465D01*
X0287520Y0047465D02*
X0287520Y0047661D01*
X0289292Y0047661D01*
X0289292Y0047465D01*
X0289292Y0049040D02*
X0287520Y0049040D01*
X0287520Y0049236D01*
X0289292Y0049236D01*
X0289292Y0049040D01*
X0289292Y0050615D02*
X0287520Y0050615D01*
X0287520Y0050811D01*
X0289292Y0050811D01*
X0289292Y0050615D01*
X0289292Y0052189D02*
X0287520Y0052189D01*
X0287520Y0052385D01*
X0289292Y0052385D01*
X0289292Y0052189D01*
X0289292Y0053764D02*
X0287520Y0053764D01*
X0287520Y0053960D01*
X0289292Y0053960D01*
X0289292Y0053764D01*
X0289292Y0055339D02*
X0287520Y0055339D01*
X0287520Y0055535D01*
X0289292Y0055535D01*
X0289292Y0055339D01*
X0286535Y0056520D02*
X0286535Y0058292D01*
X0286535Y0056520D02*
X0286339Y0056520D01*
X0286339Y0058292D01*
X0286535Y0058292D01*
X0286535Y0057110D02*
X0286339Y0057110D01*
X0286339Y0057700D02*
X0286535Y0057700D01*
X0286535Y0058290D02*
X0286339Y0058290D01*
X0284960Y0058292D02*
X0284960Y0056520D01*
X0284764Y0056520D01*
X0284764Y0058292D01*
X0284960Y0058292D01*
X0284960Y0057110D02*
X0284764Y0057110D01*
X0284764Y0057700D02*
X0284960Y0057700D01*
X0284960Y0058290D02*
X0284764Y0058290D01*
X0283385Y0058292D02*
X0283385Y0056520D01*
X0283189Y0056520D01*
X0283189Y0058292D01*
X0283385Y0058292D01*
X0283385Y0057110D02*
X0283189Y0057110D01*
X0283189Y0057700D02*
X0283385Y0057700D01*
X0283385Y0058290D02*
X0283189Y0058290D01*
X0281811Y0058292D02*
X0281811Y0056520D01*
X0281615Y0056520D01*
X0281615Y0058292D01*
X0281811Y0058292D01*
X0281811Y0057110D02*
X0281615Y0057110D01*
X0281615Y0057700D02*
X0281811Y0057700D01*
X0281811Y0058290D02*
X0281615Y0058290D01*
X0280236Y0058292D02*
X0280236Y0056520D01*
X0280040Y0056520D01*
X0280040Y0058292D01*
X0280236Y0058292D01*
X0280236Y0057110D02*
X0280040Y0057110D01*
X0280040Y0057700D02*
X0280236Y0057700D01*
X0280236Y0058290D02*
X0280040Y0058290D01*
X0278661Y0058292D02*
X0278661Y0056520D01*
X0278465Y0056520D01*
X0278465Y0058292D01*
X0278661Y0058292D01*
X0278661Y0057110D02*
X0278465Y0057110D01*
X0278465Y0057700D02*
X0278661Y0057700D01*
X0278661Y0058290D02*
X0278465Y0058290D01*
M02*
