G75*
%MOIN*%
%OFA0B0*%
%FSLAX25Y25*%
%IPPOS*%
%LPD*%
%AMOC8*
5,1,8,0,0,1.08239X$1,22.5*
%
%ADD10R,0.08868X0.08868*%
%ADD11R,0.05356X0.05356*%
%ADD12R,0.03750X0.03750*%
%ADD13R,0.03000X0.02600*%
%ADD14R,0.02600X0.03000*%
%ADD15R,0.04340X0.04660*%
%ADD16C,0.06600*%
%ADD17R,0.06600X0.06600*%
%ADD18OC8,0.06600*%
%ADD19R,0.04660X0.04340*%
%ADD20C,0.01041*%
D10*
X0018894Y0103657D03*
X0018894Y0123343D03*
X0068106Y0123343D03*
X0068106Y0103657D03*
X0114894Y0103657D03*
X0114894Y0123343D03*
X0164106Y0123343D03*
X0164106Y0103657D03*
X0206894Y0103657D03*
X0206894Y0123343D03*
X0256106Y0123343D03*
X0256106Y0103657D03*
X0164106Y0048343D03*
X0164106Y0028657D03*
X0114894Y0028657D03*
X0114894Y0048343D03*
X0114894Y0178657D03*
X0114894Y0198343D03*
X0164106Y0198343D03*
X0164106Y0178657D03*
X0314894Y0228657D03*
X0314894Y0248343D03*
X0364106Y0248343D03*
X0364106Y0228657D03*
D11*
X0249295Y0237500D03*
X0223705Y0237500D03*
D12*
X0538398Y0041500D03*
X0538398Y0029500D03*
X0550602Y0029500D03*
X0550602Y0041500D03*
X0550602Y0014500D03*
X0538398Y0014500D03*
D13*
X0283700Y0038500D03*
X0279300Y0038500D03*
X0265700Y0038500D03*
X0261300Y0038500D03*
D14*
X0301500Y0049300D03*
X0301500Y0053700D03*
D15*
X0091350Y0048500D03*
X0097650Y0048500D03*
X0099350Y0123500D03*
X0105650Y0123500D03*
X0085650Y0124500D03*
X0079350Y0124500D03*
X0187350Y0124500D03*
X0193650Y0124500D03*
X0271350Y0069500D03*
X0277650Y0069500D03*
X0283350Y0077500D03*
X0289650Y0077500D03*
X0505350Y0014500D03*
X0511650Y0014500D03*
X0516350Y0029500D03*
X0522650Y0029500D03*
X0526350Y0041500D03*
X0532650Y0041500D03*
D16*
X0431000Y0296500D03*
X0421000Y0296500D03*
X0411000Y0296500D03*
X0401000Y0296500D03*
X0391000Y0296500D03*
X0381000Y0296500D03*
X0193000Y0296500D03*
X0183000Y0296500D03*
X0173000Y0296500D03*
X0163000Y0296500D03*
X0153000Y0296500D03*
X0143000Y0296500D03*
D17*
X0365768Y0165398D03*
X0365768Y0065398D03*
D18*
X0375768Y0065398D03*
X0375768Y0075398D03*
X0365768Y0075398D03*
X0385768Y0075398D03*
X0395768Y0075398D03*
X0405768Y0075398D03*
X0415768Y0075398D03*
X0425768Y0075398D03*
X0435768Y0075398D03*
X0445768Y0075398D03*
X0455768Y0075398D03*
X0465768Y0075398D03*
X0475768Y0075398D03*
X0485768Y0075398D03*
X0495768Y0075398D03*
X0505768Y0075398D03*
X0515768Y0075398D03*
X0525768Y0075398D03*
X0535768Y0075398D03*
X0535768Y0065398D03*
X0525768Y0065398D03*
X0515768Y0065398D03*
X0505768Y0065398D03*
X0495768Y0065398D03*
X0485768Y0065398D03*
X0475768Y0065398D03*
X0465768Y0065398D03*
X0455768Y0065398D03*
X0445768Y0065398D03*
X0435768Y0065398D03*
X0425768Y0065398D03*
X0415768Y0065398D03*
X0405768Y0065398D03*
X0395768Y0065398D03*
X0385768Y0065398D03*
X0385768Y0165398D03*
X0385768Y0175398D03*
X0395768Y0175398D03*
X0395768Y0165398D03*
X0405768Y0165398D03*
X0405768Y0175398D03*
X0415768Y0175398D03*
X0415768Y0165398D03*
X0425768Y0165398D03*
X0425768Y0175398D03*
X0435768Y0175398D03*
X0445768Y0175398D03*
X0445768Y0165398D03*
X0435768Y0165398D03*
X0455768Y0165398D03*
X0455768Y0175398D03*
X0465768Y0175398D03*
X0465768Y0165398D03*
X0475768Y0165398D03*
X0475768Y0175398D03*
X0485768Y0175398D03*
X0485768Y0165398D03*
X0495768Y0165398D03*
X0495768Y0175398D03*
X0505768Y0175398D03*
X0505768Y0165398D03*
X0515768Y0165398D03*
X0515768Y0175398D03*
X0525768Y0175398D03*
X0525768Y0165398D03*
X0535768Y0165398D03*
X0535768Y0175398D03*
X0375768Y0175398D03*
X0365768Y0175398D03*
X0375768Y0165398D03*
D19*
X0097500Y0191350D03*
X0097500Y0197650D03*
D20*
X0275633Y0055610D02*
X0277555Y0055610D01*
X0277555Y0055264D01*
X0275633Y0055264D01*
X0275633Y0055610D01*
X0275633Y0054035D02*
X0277555Y0054035D01*
X0277555Y0053689D01*
X0275633Y0053689D01*
X0275633Y0054035D01*
X0275633Y0052460D02*
X0277555Y0052460D01*
X0277555Y0052114D01*
X0275633Y0052114D01*
X0275633Y0052460D01*
X0275633Y0050886D02*
X0277555Y0050886D01*
X0277555Y0050540D01*
X0275633Y0050540D01*
X0275633Y0050886D01*
X0275633Y0049311D02*
X0277555Y0049311D01*
X0277555Y0048965D01*
X0275633Y0048965D01*
X0275633Y0049311D01*
X0275633Y0047736D02*
X0277555Y0047736D01*
X0277555Y0047390D01*
X0275633Y0047390D01*
X0275633Y0047736D01*
X0278390Y0046555D02*
X0278390Y0044633D01*
X0278390Y0046555D02*
X0278736Y0046555D01*
X0278736Y0044633D01*
X0278390Y0044633D01*
X0278390Y0045673D02*
X0278736Y0045673D01*
X0279965Y0046555D02*
X0279965Y0044633D01*
X0279965Y0046555D02*
X0280311Y0046555D01*
X0280311Y0044633D01*
X0279965Y0044633D01*
X0279965Y0045673D02*
X0280311Y0045673D01*
X0281540Y0046555D02*
X0281540Y0044633D01*
X0281540Y0046555D02*
X0281886Y0046555D01*
X0281886Y0044633D01*
X0281540Y0044633D01*
X0281540Y0045673D02*
X0281886Y0045673D01*
X0283114Y0046555D02*
X0283114Y0044633D01*
X0283114Y0046555D02*
X0283460Y0046555D01*
X0283460Y0044633D01*
X0283114Y0044633D01*
X0283114Y0045673D02*
X0283460Y0045673D01*
X0284689Y0046555D02*
X0284689Y0044633D01*
X0284689Y0046555D02*
X0285035Y0046555D01*
X0285035Y0044633D01*
X0284689Y0044633D01*
X0284689Y0045673D02*
X0285035Y0045673D01*
X0286264Y0046555D02*
X0286264Y0044633D01*
X0286264Y0046555D02*
X0286610Y0046555D01*
X0286610Y0044633D01*
X0286264Y0044633D01*
X0286264Y0045673D02*
X0286610Y0045673D01*
X0287445Y0047390D02*
X0289367Y0047390D01*
X0287445Y0047390D02*
X0287445Y0047736D01*
X0289367Y0047736D01*
X0289367Y0047390D01*
X0289367Y0048965D02*
X0287445Y0048965D01*
X0287445Y0049311D01*
X0289367Y0049311D01*
X0289367Y0048965D01*
X0289367Y0050540D02*
X0287445Y0050540D01*
X0287445Y0050886D01*
X0289367Y0050886D01*
X0289367Y0050540D01*
X0289367Y0052114D02*
X0287445Y0052114D01*
X0287445Y0052460D01*
X0289367Y0052460D01*
X0289367Y0052114D01*
X0289367Y0053689D02*
X0287445Y0053689D01*
X0287445Y0054035D01*
X0289367Y0054035D01*
X0289367Y0053689D01*
X0289367Y0055264D02*
X0287445Y0055264D01*
X0287445Y0055610D01*
X0289367Y0055610D01*
X0289367Y0055264D01*
X0286610Y0056445D02*
X0286610Y0058367D01*
X0286610Y0056445D02*
X0286264Y0056445D01*
X0286264Y0058367D01*
X0286610Y0058367D01*
X0286610Y0057485D02*
X0286264Y0057485D01*
X0285035Y0058367D02*
X0285035Y0056445D01*
X0284689Y0056445D01*
X0284689Y0058367D01*
X0285035Y0058367D01*
X0285035Y0057485D02*
X0284689Y0057485D01*
X0283460Y0058367D02*
X0283460Y0056445D01*
X0283114Y0056445D01*
X0283114Y0058367D01*
X0283460Y0058367D01*
X0283460Y0057485D02*
X0283114Y0057485D01*
X0281886Y0058367D02*
X0281886Y0056445D01*
X0281540Y0056445D01*
X0281540Y0058367D01*
X0281886Y0058367D01*
X0281886Y0057485D02*
X0281540Y0057485D01*
X0280311Y0058367D02*
X0280311Y0056445D01*
X0279965Y0056445D01*
X0279965Y0058367D01*
X0280311Y0058367D01*
X0280311Y0057485D02*
X0279965Y0057485D01*
X0278736Y0058367D02*
X0278736Y0056445D01*
X0278390Y0056445D01*
X0278390Y0058367D01*
X0278736Y0058367D01*
X0278736Y0057485D02*
X0278390Y0057485D01*
M02*
