G75*
%MOIN*%
%OFA0B0*%
%FSLAX25Y25*%
%IPPOS*%
%LPD*%
%AMOC8*
5,1,8,0,0,1.08239X$1,22.5*
%
%ADD10C,0.08268*%
%ADD11C,0.04756*%
%ADD12C,0.06000*%
%ADD13C,0.05500*%
%ADD14C,0.03200*%
%ADD15C,0.01000*%
%ADD16C,0.03378*%
D10*
X0018894Y0103657D03*
X0018894Y0123343D03*
X0068106Y0123343D03*
X0068106Y0103657D03*
X0114894Y0103657D03*
X0114894Y0123343D03*
X0164106Y0123343D03*
X0164106Y0103657D03*
X0206894Y0103657D03*
X0206894Y0123343D03*
X0256106Y0123343D03*
X0256106Y0103657D03*
X0164106Y0048343D03*
X0164106Y0028657D03*
X0114894Y0028657D03*
X0114894Y0048343D03*
X0114894Y0178657D03*
X0114894Y0198343D03*
X0164106Y0198343D03*
X0164106Y0178657D03*
X0314894Y0228657D03*
X0314894Y0248343D03*
X0364106Y0248343D03*
X0364106Y0228657D03*
D11*
X0249295Y0237500D03*
X0223705Y0237500D03*
D12*
X0193000Y0296500D03*
X0183000Y0296500D03*
X0173000Y0296500D03*
X0163000Y0296500D03*
X0153000Y0296500D03*
X0143000Y0296500D03*
X0381000Y0296500D03*
X0391000Y0296500D03*
X0401000Y0296500D03*
X0411000Y0296500D03*
X0421000Y0296500D03*
X0431000Y0296500D03*
D13*
X0435768Y0175398D03*
X0445768Y0175398D03*
X0445768Y0165398D03*
X0435768Y0165398D03*
X0425768Y0165398D03*
X0425768Y0175398D03*
X0415768Y0175398D03*
X0405768Y0175398D03*
X0405768Y0165398D03*
X0415768Y0165398D03*
X0395768Y0165398D03*
X0395768Y0175398D03*
X0385768Y0175398D03*
X0385768Y0165398D03*
X0375768Y0165398D03*
X0375768Y0175398D03*
X0365768Y0175398D03*
X0365768Y0165398D03*
X0455768Y0165398D03*
X0455768Y0175398D03*
X0465768Y0175398D03*
X0465768Y0165398D03*
X0475768Y0165398D03*
X0475768Y0175398D03*
X0485768Y0175398D03*
X0485768Y0165398D03*
X0495768Y0165398D03*
X0495768Y0175398D03*
X0505768Y0175398D03*
X0505768Y0165398D03*
X0515768Y0165398D03*
X0515768Y0175398D03*
X0525768Y0175398D03*
X0525768Y0165398D03*
X0535768Y0165398D03*
X0535768Y0175398D03*
X0535768Y0075398D03*
X0525768Y0075398D03*
X0515768Y0075398D03*
X0505768Y0075398D03*
X0495768Y0075398D03*
X0485768Y0075398D03*
X0475768Y0075398D03*
X0465768Y0075398D03*
X0455768Y0075398D03*
X0445768Y0075398D03*
X0435768Y0075398D03*
X0425768Y0075398D03*
X0415768Y0075398D03*
X0405768Y0075398D03*
X0395768Y0075398D03*
X0385768Y0075398D03*
X0375768Y0075398D03*
X0365768Y0075398D03*
X0365768Y0065398D03*
X0375768Y0065398D03*
X0385768Y0065398D03*
X0395768Y0065398D03*
X0405768Y0065398D03*
X0415768Y0065398D03*
X0425768Y0065398D03*
X0435768Y0065398D03*
X0445768Y0065398D03*
X0455768Y0065398D03*
X0465768Y0065398D03*
X0475768Y0065398D03*
X0485768Y0065398D03*
X0495768Y0065398D03*
X0505768Y0065398D03*
X0515768Y0065398D03*
X0525768Y0065398D03*
X0535768Y0065398D03*
D14*
X0558500Y0041500D03*
X0301500Y0059500D03*
X0289500Y0064500D03*
X0267500Y0045500D03*
X0273500Y0038500D03*
X0259500Y0058500D03*
D15*
X0006000Y0006000D02*
X0006000Y0303000D01*
X0573000Y0303000D01*
X0573000Y0006000D01*
X0006000Y0006000D01*
X0006000Y0006497D02*
X0573000Y0006497D01*
X0573000Y0007496D02*
X0006000Y0007496D01*
X0006000Y0008494D02*
X0573000Y0008494D01*
X0573000Y0009493D02*
X0006000Y0009493D01*
X0006000Y0010491D02*
X0573000Y0010491D01*
X0573000Y0011490D02*
X0006000Y0011490D01*
X0006000Y0012488D02*
X0573000Y0012488D01*
X0573000Y0013487D02*
X0006000Y0013487D01*
X0006000Y0014485D02*
X0573000Y0014485D01*
X0573000Y0015484D02*
X0006000Y0015484D01*
X0006000Y0016482D02*
X0573000Y0016482D01*
X0573000Y0017481D02*
X0006000Y0017481D01*
X0006000Y0018479D02*
X0573000Y0018479D01*
X0573000Y0019478D02*
X0006000Y0019478D01*
X0006000Y0020476D02*
X0573000Y0020476D01*
X0573000Y0021475D02*
X0006000Y0021475D01*
X0006000Y0022473D02*
X0573000Y0022473D01*
X0573000Y0023472D02*
X0166309Y0023472D01*
X0167298Y0023881D02*
X0168882Y0025466D01*
X0169740Y0027537D01*
X0169740Y0029778D01*
X0168882Y0031849D01*
X0167298Y0033434D01*
X0165227Y0034291D01*
X0162986Y0034291D01*
X0160915Y0033434D01*
X0159330Y0031849D01*
X0158472Y0029778D01*
X0158472Y0027537D01*
X0159330Y0025466D01*
X0160915Y0023881D01*
X0162986Y0023024D01*
X0165227Y0023024D01*
X0167298Y0023881D01*
X0167887Y0024470D02*
X0573000Y0024470D01*
X0573000Y0025469D02*
X0168884Y0025469D01*
X0169297Y0026467D02*
X0573000Y0026467D01*
X0573000Y0027466D02*
X0169711Y0027466D01*
X0169740Y0028464D02*
X0573000Y0028464D01*
X0573000Y0029463D02*
X0169740Y0029463D01*
X0169457Y0030461D02*
X0573000Y0030461D01*
X0573000Y0031460D02*
X0169044Y0031460D01*
X0168273Y0032458D02*
X0573000Y0032458D01*
X0573000Y0033457D02*
X0167242Y0033457D01*
X0160971Y0033457D02*
X0118029Y0033457D01*
X0118085Y0033434D02*
X0116014Y0034291D01*
X0113773Y0034291D01*
X0111702Y0033434D01*
X0110118Y0031849D01*
X0109260Y0029778D01*
X0109260Y0027537D01*
X0110118Y0025466D01*
X0111702Y0023881D01*
X0113773Y0023024D01*
X0116014Y0023024D01*
X0118085Y0023881D01*
X0119670Y0025466D01*
X0120528Y0027537D01*
X0120528Y0029778D01*
X0119670Y0031849D01*
X0118085Y0033434D01*
X0119060Y0032458D02*
X0159940Y0032458D01*
X0159169Y0031460D02*
X0119831Y0031460D01*
X0120245Y0030461D02*
X0158755Y0030461D01*
X0158472Y0029463D02*
X0120528Y0029463D01*
X0120528Y0028464D02*
X0158472Y0028464D01*
X0158502Y0027466D02*
X0120498Y0027466D01*
X0120085Y0026467D02*
X0158915Y0026467D01*
X0159329Y0025469D02*
X0119671Y0025469D01*
X0118674Y0024470D02*
X0160326Y0024470D01*
X0161904Y0023472D02*
X0117096Y0023472D01*
X0112691Y0023472D02*
X0006000Y0023472D01*
X0006000Y0024470D02*
X0111113Y0024470D01*
X0110116Y0025469D02*
X0006000Y0025469D01*
X0006000Y0026467D02*
X0109703Y0026467D01*
X0109289Y0027466D02*
X0006000Y0027466D01*
X0006000Y0028464D02*
X0109260Y0028464D01*
X0109260Y0029463D02*
X0006000Y0029463D01*
X0006000Y0030461D02*
X0109543Y0030461D01*
X0109956Y0031460D02*
X0006000Y0031460D01*
X0006000Y0032458D02*
X0110727Y0032458D01*
X0111758Y0033457D02*
X0006000Y0033457D01*
X0006000Y0034455D02*
X0573000Y0034455D01*
X0573000Y0035454D02*
X0274247Y0035454D01*
X0274117Y0035400D02*
X0275256Y0035872D01*
X0276128Y0036744D01*
X0276600Y0037883D01*
X0276600Y0039117D01*
X0276128Y0040256D01*
X0275256Y0041128D01*
X0274117Y0041600D01*
X0272883Y0041600D01*
X0271744Y0041128D01*
X0270872Y0040256D01*
X0270400Y0039117D01*
X0270400Y0037883D01*
X0270872Y0036744D01*
X0271744Y0035872D01*
X0272883Y0035400D01*
X0274117Y0035400D01*
X0272753Y0035454D02*
X0006000Y0035454D01*
X0006000Y0036452D02*
X0271164Y0036452D01*
X0270579Y0037451D02*
X0006000Y0037451D01*
X0006000Y0038449D02*
X0270400Y0038449D01*
X0270537Y0039448D02*
X0006000Y0039448D01*
X0006000Y0040446D02*
X0271062Y0040446D01*
X0272509Y0041445D02*
X0006000Y0041445D01*
X0006000Y0042443D02*
X0555535Y0042443D01*
X0555400Y0042117D02*
X0555400Y0040883D01*
X0555872Y0039744D01*
X0556744Y0038872D01*
X0557883Y0038400D01*
X0559117Y0038400D01*
X0560256Y0038872D01*
X0561128Y0039744D01*
X0561600Y0040883D01*
X0561600Y0042117D01*
X0561128Y0043256D01*
X0560256Y0044128D01*
X0559117Y0044600D01*
X0557883Y0044600D01*
X0556744Y0044128D01*
X0555872Y0043256D01*
X0555400Y0042117D01*
X0555400Y0041445D02*
X0274491Y0041445D01*
X0275938Y0040446D02*
X0555581Y0040446D01*
X0556168Y0039448D02*
X0276463Y0039448D01*
X0276600Y0038449D02*
X0557764Y0038449D01*
X0559236Y0038449D02*
X0573000Y0038449D01*
X0573000Y0037451D02*
X0276421Y0037451D01*
X0275836Y0036452D02*
X0573000Y0036452D01*
X0573000Y0039448D02*
X0560832Y0039448D01*
X0561419Y0040446D02*
X0573000Y0040446D01*
X0573000Y0041445D02*
X0561600Y0041445D01*
X0561465Y0042443D02*
X0573000Y0042443D01*
X0573000Y0043442D02*
X0560942Y0043442D01*
X0559502Y0044440D02*
X0573000Y0044440D01*
X0573000Y0045439D02*
X0169002Y0045439D01*
X0168882Y0045151D02*
X0169740Y0047222D01*
X0169740Y0049463D01*
X0168882Y0051534D01*
X0167298Y0053119D01*
X0165227Y0053976D01*
X0162986Y0053976D01*
X0160915Y0053119D01*
X0159330Y0051534D01*
X0158472Y0049463D01*
X0158472Y0047222D01*
X0159330Y0045151D01*
X0160915Y0043566D01*
X0162986Y0042709D01*
X0165227Y0042709D01*
X0167298Y0043566D01*
X0168882Y0045151D01*
X0168172Y0044440D02*
X0557498Y0044440D01*
X0556058Y0043442D02*
X0166997Y0043442D01*
X0169415Y0046437D02*
X0573000Y0046437D01*
X0573000Y0047436D02*
X0169740Y0047436D01*
X0169740Y0048434D02*
X0573000Y0048434D01*
X0573000Y0049433D02*
X0169740Y0049433D01*
X0169339Y0050432D02*
X0573000Y0050432D01*
X0573000Y0051430D02*
X0168925Y0051430D01*
X0167988Y0052429D02*
X0573000Y0052429D01*
X0573000Y0053427D02*
X0166553Y0053427D01*
X0161659Y0053427D02*
X0117341Y0053427D01*
X0118085Y0053119D02*
X0116014Y0053976D01*
X0113773Y0053976D01*
X0111702Y0053119D01*
X0110118Y0051534D01*
X0109260Y0049463D01*
X0109260Y0047222D01*
X0110118Y0045151D01*
X0111702Y0043566D01*
X0113773Y0042709D01*
X0116014Y0042709D01*
X0118085Y0043566D01*
X0119670Y0045151D01*
X0120528Y0047222D01*
X0120528Y0049463D01*
X0119670Y0051534D01*
X0118085Y0053119D01*
X0118775Y0052429D02*
X0160225Y0052429D01*
X0159287Y0051430D02*
X0119713Y0051430D01*
X0120126Y0050432D02*
X0158874Y0050432D01*
X0158472Y0049433D02*
X0120528Y0049433D01*
X0120528Y0048434D02*
X0158472Y0048434D01*
X0158472Y0047436D02*
X0120528Y0047436D01*
X0120203Y0046437D02*
X0158797Y0046437D01*
X0159211Y0045439D02*
X0119789Y0045439D01*
X0118959Y0044440D02*
X0160041Y0044440D01*
X0161215Y0043442D02*
X0117785Y0043442D01*
X0112003Y0043442D02*
X0006000Y0043442D01*
X0006000Y0044440D02*
X0110828Y0044440D01*
X0109998Y0045439D02*
X0006000Y0045439D01*
X0006000Y0046437D02*
X0109585Y0046437D01*
X0109260Y0047436D02*
X0006000Y0047436D01*
X0006000Y0048434D02*
X0109260Y0048434D01*
X0109260Y0049433D02*
X0006000Y0049433D01*
X0006000Y0050432D02*
X0109661Y0050432D01*
X0110075Y0051430D02*
X0006000Y0051430D01*
X0006000Y0052429D02*
X0111012Y0052429D01*
X0112447Y0053427D02*
X0006000Y0053427D01*
X0006000Y0054426D02*
X0573000Y0054426D01*
X0573000Y0055424D02*
X0006000Y0055424D01*
X0006000Y0056423D02*
X0573000Y0056423D01*
X0573000Y0057421D02*
X0006000Y0057421D01*
X0006000Y0058420D02*
X0573000Y0058420D01*
X0573000Y0059418D02*
X0006000Y0059418D01*
X0006000Y0060417D02*
X0573000Y0060417D01*
X0573000Y0061415D02*
X0537259Y0061415D01*
X0536613Y0061148D02*
X0538175Y0061795D01*
X0539371Y0062990D01*
X0540018Y0064552D01*
X0540018Y0066243D01*
X0539371Y0067805D01*
X0538175Y0069001D01*
X0536613Y0069648D01*
X0534922Y0069648D01*
X0533360Y0069001D01*
X0532165Y0067805D01*
X0531518Y0066243D01*
X0531518Y0064552D01*
X0532165Y0062990D01*
X0533360Y0061795D01*
X0534922Y0061148D01*
X0536613Y0061148D01*
X0534277Y0061415D02*
X0527259Y0061415D01*
X0526613Y0061148D02*
X0528175Y0061795D01*
X0529371Y0062990D01*
X0530018Y0064552D01*
X0530018Y0066243D01*
X0529371Y0067805D01*
X0528175Y0069001D01*
X0526613Y0069648D01*
X0524922Y0069648D01*
X0523360Y0069001D01*
X0522165Y0067805D01*
X0521518Y0066243D01*
X0521518Y0064552D01*
X0522165Y0062990D01*
X0523360Y0061795D01*
X0524922Y0061148D01*
X0526613Y0061148D01*
X0524277Y0061415D02*
X0517259Y0061415D01*
X0516613Y0061148D02*
X0518175Y0061795D01*
X0519371Y0062990D01*
X0520018Y0064552D01*
X0520018Y0066243D01*
X0519371Y0067805D01*
X0518175Y0069001D01*
X0516613Y0069648D01*
X0514922Y0069648D01*
X0513360Y0069001D01*
X0512165Y0067805D01*
X0511518Y0066243D01*
X0511518Y0064552D01*
X0512165Y0062990D01*
X0513360Y0061795D01*
X0514922Y0061148D01*
X0516613Y0061148D01*
X0514277Y0061415D02*
X0507259Y0061415D01*
X0506613Y0061148D02*
X0508175Y0061795D01*
X0509371Y0062990D01*
X0510018Y0064552D01*
X0510018Y0066243D01*
X0509371Y0067805D01*
X0508175Y0069001D01*
X0506613Y0069648D01*
X0504922Y0069648D01*
X0503360Y0069001D01*
X0502165Y0067805D01*
X0501518Y0066243D01*
X0501518Y0064552D01*
X0502165Y0062990D01*
X0503360Y0061795D01*
X0504922Y0061148D01*
X0506613Y0061148D01*
X0504277Y0061415D02*
X0497259Y0061415D01*
X0496613Y0061148D02*
X0498175Y0061795D01*
X0499371Y0062990D01*
X0500018Y0064552D01*
X0500018Y0066243D01*
X0499371Y0067805D01*
X0498175Y0069001D01*
X0496613Y0069648D01*
X0494922Y0069648D01*
X0493360Y0069001D01*
X0492165Y0067805D01*
X0491518Y0066243D01*
X0491518Y0064552D01*
X0492165Y0062990D01*
X0493360Y0061795D01*
X0494922Y0061148D01*
X0496613Y0061148D01*
X0494277Y0061415D02*
X0487259Y0061415D01*
X0486613Y0061148D02*
X0488175Y0061795D01*
X0489371Y0062990D01*
X0490018Y0064552D01*
X0490018Y0066243D01*
X0489371Y0067805D01*
X0488175Y0069001D01*
X0486613Y0069648D01*
X0484922Y0069648D01*
X0483360Y0069001D01*
X0482165Y0067805D01*
X0481518Y0066243D01*
X0481518Y0064552D01*
X0482165Y0062990D01*
X0483360Y0061795D01*
X0484922Y0061148D01*
X0486613Y0061148D01*
X0484277Y0061415D02*
X0477259Y0061415D01*
X0476613Y0061148D02*
X0478175Y0061795D01*
X0479371Y0062990D01*
X0480018Y0064552D01*
X0480018Y0066243D01*
X0479371Y0067805D01*
X0478175Y0069001D01*
X0476613Y0069648D01*
X0474922Y0069648D01*
X0473360Y0069001D01*
X0472165Y0067805D01*
X0471518Y0066243D01*
X0471518Y0064552D01*
X0472165Y0062990D01*
X0473360Y0061795D01*
X0474922Y0061148D01*
X0476613Y0061148D01*
X0474277Y0061415D02*
X0467259Y0061415D01*
X0466613Y0061148D02*
X0468175Y0061795D01*
X0469371Y0062990D01*
X0470018Y0064552D01*
X0470018Y0066243D01*
X0469371Y0067805D01*
X0468175Y0069001D01*
X0466613Y0069648D01*
X0464922Y0069648D01*
X0463360Y0069001D01*
X0462165Y0067805D01*
X0461518Y0066243D01*
X0461518Y0064552D01*
X0462165Y0062990D01*
X0463360Y0061795D01*
X0464922Y0061148D01*
X0466613Y0061148D01*
X0464277Y0061415D02*
X0457259Y0061415D01*
X0456613Y0061148D02*
X0458175Y0061795D01*
X0459371Y0062990D01*
X0460018Y0064552D01*
X0460018Y0066243D01*
X0459371Y0067805D01*
X0458175Y0069001D01*
X0456613Y0069648D01*
X0454922Y0069648D01*
X0453360Y0069001D01*
X0452165Y0067805D01*
X0451518Y0066243D01*
X0451518Y0064552D01*
X0452165Y0062990D01*
X0453360Y0061795D01*
X0454922Y0061148D01*
X0456613Y0061148D01*
X0454277Y0061415D02*
X0447259Y0061415D01*
X0446613Y0061148D02*
X0448175Y0061795D01*
X0449371Y0062990D01*
X0450018Y0064552D01*
X0450018Y0066243D01*
X0449371Y0067805D01*
X0448175Y0069001D01*
X0446613Y0069648D01*
X0444922Y0069648D01*
X0443360Y0069001D01*
X0442165Y0067805D01*
X0441518Y0066243D01*
X0441518Y0064552D01*
X0442165Y0062990D01*
X0443360Y0061795D01*
X0444922Y0061148D01*
X0446613Y0061148D01*
X0444277Y0061415D02*
X0437259Y0061415D01*
X0436613Y0061148D02*
X0438175Y0061795D01*
X0439371Y0062990D01*
X0440018Y0064552D01*
X0440018Y0066243D01*
X0439371Y0067805D01*
X0438175Y0069001D01*
X0436613Y0069648D01*
X0434922Y0069648D01*
X0433360Y0069001D01*
X0432165Y0067805D01*
X0431518Y0066243D01*
X0431518Y0064552D01*
X0432165Y0062990D01*
X0433360Y0061795D01*
X0434922Y0061148D01*
X0436613Y0061148D01*
X0434277Y0061415D02*
X0427259Y0061415D01*
X0426613Y0061148D02*
X0428175Y0061795D01*
X0429371Y0062990D01*
X0430018Y0064552D01*
X0430018Y0066243D01*
X0429371Y0067805D01*
X0428175Y0069001D01*
X0426613Y0069648D01*
X0424922Y0069648D01*
X0423360Y0069001D01*
X0422165Y0067805D01*
X0421518Y0066243D01*
X0421518Y0064552D01*
X0422165Y0062990D01*
X0423360Y0061795D01*
X0424922Y0061148D01*
X0426613Y0061148D01*
X0424277Y0061415D02*
X0417259Y0061415D01*
X0416613Y0061148D02*
X0418175Y0061795D01*
X0419371Y0062990D01*
X0420018Y0064552D01*
X0420018Y0066243D01*
X0419371Y0067805D01*
X0418175Y0069001D01*
X0416613Y0069648D01*
X0414922Y0069648D01*
X0413360Y0069001D01*
X0412165Y0067805D01*
X0411518Y0066243D01*
X0411518Y0064552D01*
X0412165Y0062990D01*
X0413360Y0061795D01*
X0414922Y0061148D01*
X0416613Y0061148D01*
X0414277Y0061415D02*
X0407259Y0061415D01*
X0406613Y0061148D02*
X0408175Y0061795D01*
X0409371Y0062990D01*
X0410018Y0064552D01*
X0410018Y0066243D01*
X0409371Y0067805D01*
X0408175Y0069001D01*
X0406613Y0069648D01*
X0404922Y0069648D01*
X0403360Y0069001D01*
X0402165Y0067805D01*
X0401518Y0066243D01*
X0401518Y0064552D01*
X0402165Y0062990D01*
X0403360Y0061795D01*
X0404922Y0061148D01*
X0406613Y0061148D01*
X0404277Y0061415D02*
X0397259Y0061415D01*
X0396613Y0061148D02*
X0398175Y0061795D01*
X0399371Y0062990D01*
X0400018Y0064552D01*
X0400018Y0066243D01*
X0399371Y0067805D01*
X0398175Y0069001D01*
X0396613Y0069648D01*
X0394922Y0069648D01*
X0393360Y0069001D01*
X0392165Y0067805D01*
X0391518Y0066243D01*
X0391518Y0064552D01*
X0392165Y0062990D01*
X0393360Y0061795D01*
X0394922Y0061148D01*
X0396613Y0061148D01*
X0394277Y0061415D02*
X0387259Y0061415D01*
X0386613Y0061148D02*
X0388175Y0061795D01*
X0389371Y0062990D01*
X0390018Y0064552D01*
X0390018Y0066243D01*
X0389371Y0067805D01*
X0388175Y0069001D01*
X0386613Y0069648D01*
X0384922Y0069648D01*
X0383360Y0069001D01*
X0382165Y0067805D01*
X0381518Y0066243D01*
X0381518Y0064552D01*
X0382165Y0062990D01*
X0383360Y0061795D01*
X0384922Y0061148D01*
X0386613Y0061148D01*
X0384277Y0061415D02*
X0377259Y0061415D01*
X0376613Y0061148D02*
X0378175Y0061795D01*
X0379371Y0062990D01*
X0380018Y0064552D01*
X0380018Y0066243D01*
X0379371Y0067805D01*
X0378175Y0069001D01*
X0376613Y0069648D01*
X0374922Y0069648D01*
X0373360Y0069001D01*
X0372165Y0067805D01*
X0371518Y0066243D01*
X0371518Y0064552D01*
X0372165Y0062990D01*
X0373360Y0061795D01*
X0374922Y0061148D01*
X0376613Y0061148D01*
X0374277Y0061415D02*
X0367259Y0061415D01*
X0366613Y0061148D02*
X0368175Y0061795D01*
X0369371Y0062990D01*
X0370018Y0064552D01*
X0370018Y0066243D01*
X0369371Y0067805D01*
X0368175Y0069001D01*
X0366613Y0069648D01*
X0364922Y0069648D01*
X0363360Y0069001D01*
X0362165Y0067805D01*
X0361518Y0066243D01*
X0361518Y0064552D01*
X0362165Y0062990D01*
X0363360Y0061795D01*
X0364922Y0061148D01*
X0366613Y0061148D01*
X0364277Y0061415D02*
X0290153Y0061415D01*
X0290117Y0061400D02*
X0291256Y0061872D01*
X0292128Y0062744D01*
X0292600Y0063883D01*
X0292600Y0065117D01*
X0292128Y0066256D01*
X0291256Y0067128D01*
X0290117Y0067600D01*
X0288883Y0067600D01*
X0287744Y0067128D01*
X0286872Y0066256D01*
X0286400Y0065117D01*
X0286400Y0063883D01*
X0286872Y0062744D01*
X0287744Y0061872D01*
X0288883Y0061400D01*
X0290117Y0061400D01*
X0288847Y0061415D02*
X0006000Y0061415D01*
X0006000Y0062414D02*
X0287202Y0062414D01*
X0286595Y0063412D02*
X0006000Y0063412D01*
X0006000Y0064411D02*
X0286400Y0064411D01*
X0286521Y0065409D02*
X0006000Y0065409D01*
X0006000Y0066408D02*
X0287024Y0066408D01*
X0288416Y0067406D02*
X0006000Y0067406D01*
X0006000Y0068405D02*
X0362764Y0068405D01*
X0362000Y0067406D02*
X0290584Y0067406D01*
X0291976Y0066408D02*
X0361586Y0066408D01*
X0361518Y0065409D02*
X0292479Y0065409D01*
X0292600Y0064411D02*
X0361576Y0064411D01*
X0361990Y0063412D02*
X0292405Y0063412D01*
X0291798Y0062414D02*
X0362741Y0062414D01*
X0368794Y0062414D02*
X0372741Y0062414D01*
X0371990Y0063412D02*
X0369545Y0063412D01*
X0369959Y0064411D02*
X0371576Y0064411D01*
X0371518Y0065409D02*
X0370018Y0065409D01*
X0369949Y0066408D02*
X0371586Y0066408D01*
X0372000Y0067406D02*
X0369536Y0067406D01*
X0368771Y0068405D02*
X0372764Y0068405D01*
X0374332Y0069403D02*
X0367203Y0069403D01*
X0366613Y0071148D02*
X0368175Y0071795D01*
X0369371Y0072990D01*
X0370018Y0074552D01*
X0370018Y0076243D01*
X0369371Y0077805D01*
X0368175Y0079001D01*
X0366613Y0079648D01*
X0364922Y0079648D01*
X0363360Y0079001D01*
X0362165Y0077805D01*
X0361518Y0076243D01*
X0361518Y0074552D01*
X0362165Y0072990D01*
X0363360Y0071795D01*
X0364922Y0071148D01*
X0366613Y0071148D01*
X0367223Y0071400D02*
X0374312Y0071400D01*
X0374922Y0071148D02*
X0376613Y0071148D01*
X0378175Y0071795D01*
X0379371Y0072990D01*
X0380018Y0074552D01*
X0380018Y0076243D01*
X0379371Y0077805D01*
X0378175Y0079001D01*
X0376613Y0079648D01*
X0374922Y0079648D01*
X0373360Y0079001D01*
X0372165Y0077805D01*
X0371518Y0076243D01*
X0371518Y0074552D01*
X0372165Y0072990D01*
X0373360Y0071795D01*
X0374922Y0071148D01*
X0377223Y0071400D02*
X0384312Y0071400D01*
X0384922Y0071148D02*
X0386613Y0071148D01*
X0388175Y0071795D01*
X0389371Y0072990D01*
X0390018Y0074552D01*
X0390018Y0076243D01*
X0389371Y0077805D01*
X0388175Y0079001D01*
X0386613Y0079648D01*
X0384922Y0079648D01*
X0383360Y0079001D01*
X0382165Y0077805D01*
X0381518Y0076243D01*
X0381518Y0074552D01*
X0382165Y0072990D01*
X0383360Y0071795D01*
X0384922Y0071148D01*
X0384332Y0069403D02*
X0377203Y0069403D01*
X0378771Y0068405D02*
X0382764Y0068405D01*
X0382000Y0067406D02*
X0379536Y0067406D01*
X0379949Y0066408D02*
X0381586Y0066408D01*
X0381518Y0065409D02*
X0380018Y0065409D01*
X0379959Y0064411D02*
X0381576Y0064411D01*
X0381990Y0063412D02*
X0379545Y0063412D01*
X0378794Y0062414D02*
X0382741Y0062414D01*
X0388794Y0062414D02*
X0392741Y0062414D01*
X0391990Y0063412D02*
X0389545Y0063412D01*
X0389959Y0064411D02*
X0391576Y0064411D01*
X0391518Y0065409D02*
X0390018Y0065409D01*
X0389949Y0066408D02*
X0391586Y0066408D01*
X0392000Y0067406D02*
X0389536Y0067406D01*
X0388771Y0068405D02*
X0392764Y0068405D01*
X0394332Y0069403D02*
X0387203Y0069403D01*
X0387223Y0071400D02*
X0394312Y0071400D01*
X0394922Y0071148D02*
X0396613Y0071148D01*
X0398175Y0071795D01*
X0399371Y0072990D01*
X0400018Y0074552D01*
X0400018Y0076243D01*
X0399371Y0077805D01*
X0398175Y0079001D01*
X0396613Y0079648D01*
X0394922Y0079648D01*
X0393360Y0079001D01*
X0392165Y0077805D01*
X0391518Y0076243D01*
X0391518Y0074552D01*
X0392165Y0072990D01*
X0393360Y0071795D01*
X0394922Y0071148D01*
X0397223Y0071400D02*
X0404312Y0071400D01*
X0404922Y0071148D02*
X0406613Y0071148D01*
X0408175Y0071795D01*
X0409371Y0072990D01*
X0410018Y0074552D01*
X0410018Y0076243D01*
X0409371Y0077805D01*
X0408175Y0079001D01*
X0406613Y0079648D01*
X0404922Y0079648D01*
X0403360Y0079001D01*
X0402165Y0077805D01*
X0401518Y0076243D01*
X0401518Y0074552D01*
X0402165Y0072990D01*
X0403360Y0071795D01*
X0404922Y0071148D01*
X0404332Y0069403D02*
X0397203Y0069403D01*
X0398771Y0068405D02*
X0402764Y0068405D01*
X0402000Y0067406D02*
X0399536Y0067406D01*
X0399949Y0066408D02*
X0401586Y0066408D01*
X0401518Y0065409D02*
X0400018Y0065409D01*
X0399959Y0064411D02*
X0401576Y0064411D01*
X0401990Y0063412D02*
X0399545Y0063412D01*
X0398794Y0062414D02*
X0402741Y0062414D01*
X0408794Y0062414D02*
X0412741Y0062414D01*
X0411990Y0063412D02*
X0409545Y0063412D01*
X0409959Y0064411D02*
X0411576Y0064411D01*
X0411518Y0065409D02*
X0410018Y0065409D01*
X0409949Y0066408D02*
X0411586Y0066408D01*
X0412000Y0067406D02*
X0409536Y0067406D01*
X0408771Y0068405D02*
X0412764Y0068405D01*
X0414332Y0069403D02*
X0407203Y0069403D01*
X0407223Y0071400D02*
X0414312Y0071400D01*
X0414922Y0071148D02*
X0416613Y0071148D01*
X0418175Y0071795D01*
X0419371Y0072990D01*
X0420018Y0074552D01*
X0420018Y0076243D01*
X0419371Y0077805D01*
X0418175Y0079001D01*
X0416613Y0079648D01*
X0414922Y0079648D01*
X0413360Y0079001D01*
X0412165Y0077805D01*
X0411518Y0076243D01*
X0411518Y0074552D01*
X0412165Y0072990D01*
X0413360Y0071795D01*
X0414922Y0071148D01*
X0417223Y0071400D02*
X0424317Y0071400D01*
X0424136Y0071459D02*
X0424773Y0071252D01*
X0425393Y0071154D01*
X0425393Y0075023D01*
X0426143Y0075023D01*
X0426143Y0075773D01*
X0425393Y0075773D01*
X0425393Y0079641D01*
X0424773Y0079543D01*
X0424136Y0079336D01*
X0423540Y0079033D01*
X0422999Y0078639D01*
X0422526Y0078166D01*
X0422133Y0077625D01*
X0421829Y0077029D01*
X0421622Y0076393D01*
X0421524Y0075773D01*
X0425393Y0075773D01*
X0425393Y0075023D01*
X0421524Y0075023D01*
X0421622Y0074402D01*
X0421829Y0073766D01*
X0422133Y0073170D01*
X0422526Y0072629D01*
X0422999Y0072156D01*
X0423540Y0071763D01*
X0424136Y0071459D01*
X0425393Y0071400D02*
X0426143Y0071400D01*
X0426143Y0071154D02*
X0426763Y0071252D01*
X0427399Y0071459D01*
X0427995Y0071763D01*
X0428536Y0072156D01*
X0429009Y0072629D01*
X0429403Y0073170D01*
X0429706Y0073766D01*
X0429913Y0074402D01*
X0430011Y0075023D01*
X0426143Y0075023D01*
X0426143Y0071154D01*
X0427218Y0071400D02*
X0434312Y0071400D01*
X0434922Y0071148D02*
X0436613Y0071148D01*
X0438175Y0071795D01*
X0439371Y0072990D01*
X0440018Y0074552D01*
X0440018Y0076243D01*
X0439371Y0077805D01*
X0438175Y0079001D01*
X0436613Y0079648D01*
X0434922Y0079648D01*
X0433360Y0079001D01*
X0432165Y0077805D01*
X0431518Y0076243D01*
X0431518Y0074552D01*
X0432165Y0072990D01*
X0433360Y0071795D01*
X0434922Y0071148D01*
X0434332Y0069403D02*
X0427203Y0069403D01*
X0428771Y0068405D02*
X0432764Y0068405D01*
X0432000Y0067406D02*
X0429536Y0067406D01*
X0429949Y0066408D02*
X0431586Y0066408D01*
X0431518Y0065409D02*
X0430018Y0065409D01*
X0429959Y0064411D02*
X0431576Y0064411D01*
X0431990Y0063412D02*
X0429545Y0063412D01*
X0428794Y0062414D02*
X0432741Y0062414D01*
X0438794Y0062414D02*
X0442741Y0062414D01*
X0441990Y0063412D02*
X0439545Y0063412D01*
X0439959Y0064411D02*
X0441576Y0064411D01*
X0441518Y0065409D02*
X0440018Y0065409D01*
X0439949Y0066408D02*
X0441586Y0066408D01*
X0442000Y0067406D02*
X0439536Y0067406D01*
X0438771Y0068405D02*
X0442764Y0068405D01*
X0444332Y0069403D02*
X0437203Y0069403D01*
X0437223Y0071400D02*
X0444312Y0071400D01*
X0444922Y0071148D02*
X0446613Y0071148D01*
X0448175Y0071795D01*
X0449371Y0072990D01*
X0450018Y0074552D01*
X0450018Y0076243D01*
X0449371Y0077805D01*
X0448175Y0079001D01*
X0446613Y0079648D01*
X0444922Y0079648D01*
X0443360Y0079001D01*
X0442165Y0077805D01*
X0441518Y0076243D01*
X0441518Y0074552D01*
X0442165Y0072990D01*
X0443360Y0071795D01*
X0444922Y0071148D01*
X0447223Y0071400D02*
X0454312Y0071400D01*
X0454922Y0071148D02*
X0456613Y0071148D01*
X0458175Y0071795D01*
X0459371Y0072990D01*
X0460018Y0074552D01*
X0460018Y0076243D01*
X0459371Y0077805D01*
X0458175Y0079001D01*
X0456613Y0079648D01*
X0454922Y0079648D01*
X0453360Y0079001D01*
X0452165Y0077805D01*
X0451518Y0076243D01*
X0451518Y0074552D01*
X0452165Y0072990D01*
X0453360Y0071795D01*
X0454922Y0071148D01*
X0454332Y0069403D02*
X0447203Y0069403D01*
X0448771Y0068405D02*
X0452764Y0068405D01*
X0452000Y0067406D02*
X0449536Y0067406D01*
X0449949Y0066408D02*
X0451586Y0066408D01*
X0451518Y0065409D02*
X0450018Y0065409D01*
X0449959Y0064411D02*
X0451576Y0064411D01*
X0451990Y0063412D02*
X0449545Y0063412D01*
X0448794Y0062414D02*
X0452741Y0062414D01*
X0458794Y0062414D02*
X0462741Y0062414D01*
X0461990Y0063412D02*
X0459545Y0063412D01*
X0459959Y0064411D02*
X0461576Y0064411D01*
X0461518Y0065409D02*
X0460018Y0065409D01*
X0459949Y0066408D02*
X0461586Y0066408D01*
X0462000Y0067406D02*
X0459536Y0067406D01*
X0458771Y0068405D02*
X0462764Y0068405D01*
X0464332Y0069403D02*
X0457203Y0069403D01*
X0457223Y0071400D02*
X0464312Y0071400D01*
X0464922Y0071148D02*
X0466613Y0071148D01*
X0468175Y0071795D01*
X0469371Y0072990D01*
X0470018Y0074552D01*
X0470018Y0076243D01*
X0469371Y0077805D01*
X0468175Y0079001D01*
X0466613Y0079648D01*
X0464922Y0079648D01*
X0463360Y0079001D01*
X0462165Y0077805D01*
X0461518Y0076243D01*
X0461518Y0074552D01*
X0462165Y0072990D01*
X0463360Y0071795D01*
X0464922Y0071148D01*
X0467223Y0071400D02*
X0474312Y0071400D01*
X0474922Y0071148D02*
X0473360Y0071795D01*
X0472165Y0072990D01*
X0471518Y0074552D01*
X0471518Y0076243D01*
X0472165Y0077805D01*
X0473360Y0079001D01*
X0474922Y0079648D01*
X0476613Y0079648D01*
X0478175Y0079001D01*
X0479371Y0077805D01*
X0480018Y0076243D01*
X0480018Y0074552D01*
X0479371Y0072990D01*
X0478175Y0071795D01*
X0476613Y0071148D01*
X0474922Y0071148D01*
X0474332Y0069403D02*
X0467203Y0069403D01*
X0468771Y0068405D02*
X0472764Y0068405D01*
X0472000Y0067406D02*
X0469536Y0067406D01*
X0469949Y0066408D02*
X0471586Y0066408D01*
X0471518Y0065409D02*
X0470018Y0065409D01*
X0469959Y0064411D02*
X0471576Y0064411D01*
X0471990Y0063412D02*
X0469545Y0063412D01*
X0468794Y0062414D02*
X0472741Y0062414D01*
X0478794Y0062414D02*
X0482741Y0062414D01*
X0481990Y0063412D02*
X0479545Y0063412D01*
X0479959Y0064411D02*
X0481576Y0064411D01*
X0481518Y0065409D02*
X0480018Y0065409D01*
X0479949Y0066408D02*
X0481586Y0066408D01*
X0482000Y0067406D02*
X0479536Y0067406D01*
X0478771Y0068405D02*
X0482764Y0068405D01*
X0484332Y0069403D02*
X0477203Y0069403D01*
X0477223Y0071400D02*
X0484312Y0071400D01*
X0484922Y0071148D02*
X0486613Y0071148D01*
X0488175Y0071795D01*
X0489371Y0072990D01*
X0490018Y0074552D01*
X0490018Y0076243D01*
X0489371Y0077805D01*
X0488175Y0079001D01*
X0486613Y0079648D01*
X0484922Y0079648D01*
X0483360Y0079001D01*
X0482165Y0077805D01*
X0481518Y0076243D01*
X0481518Y0074552D01*
X0482165Y0072990D01*
X0483360Y0071795D01*
X0484922Y0071148D01*
X0487223Y0071400D02*
X0494312Y0071400D01*
X0494922Y0071148D02*
X0496613Y0071148D01*
X0498175Y0071795D01*
X0499371Y0072990D01*
X0500018Y0074552D01*
X0500018Y0076243D01*
X0499371Y0077805D01*
X0498175Y0079001D01*
X0496613Y0079648D01*
X0494922Y0079648D01*
X0493360Y0079001D01*
X0492165Y0077805D01*
X0491518Y0076243D01*
X0491518Y0074552D01*
X0492165Y0072990D01*
X0493360Y0071795D01*
X0494922Y0071148D01*
X0494332Y0069403D02*
X0487203Y0069403D01*
X0488771Y0068405D02*
X0492764Y0068405D01*
X0492000Y0067406D02*
X0489536Y0067406D01*
X0489949Y0066408D02*
X0491586Y0066408D01*
X0491518Y0065409D02*
X0490018Y0065409D01*
X0489959Y0064411D02*
X0491576Y0064411D01*
X0491990Y0063412D02*
X0489545Y0063412D01*
X0488794Y0062414D02*
X0492741Y0062414D01*
X0498794Y0062414D02*
X0502741Y0062414D01*
X0501990Y0063412D02*
X0499545Y0063412D01*
X0499959Y0064411D02*
X0501576Y0064411D01*
X0501518Y0065409D02*
X0500018Y0065409D01*
X0499949Y0066408D02*
X0501586Y0066408D01*
X0502000Y0067406D02*
X0499536Y0067406D01*
X0498771Y0068405D02*
X0502764Y0068405D01*
X0504332Y0069403D02*
X0497203Y0069403D01*
X0497223Y0071400D02*
X0504312Y0071400D01*
X0504922Y0071148D02*
X0506613Y0071148D01*
X0508175Y0071795D01*
X0509371Y0072990D01*
X0510018Y0074552D01*
X0510018Y0076243D01*
X0509371Y0077805D01*
X0508175Y0079001D01*
X0506613Y0079648D01*
X0504922Y0079648D01*
X0503360Y0079001D01*
X0502165Y0077805D01*
X0501518Y0076243D01*
X0501518Y0074552D01*
X0502165Y0072990D01*
X0503360Y0071795D01*
X0504922Y0071148D01*
X0507223Y0071400D02*
X0514312Y0071400D01*
X0514922Y0071148D02*
X0516613Y0071148D01*
X0518175Y0071795D01*
X0519371Y0072990D01*
X0520018Y0074552D01*
X0520018Y0076243D01*
X0519371Y0077805D01*
X0518175Y0079001D01*
X0516613Y0079648D01*
X0514922Y0079648D01*
X0513360Y0079001D01*
X0512165Y0077805D01*
X0511518Y0076243D01*
X0511518Y0074552D01*
X0512165Y0072990D01*
X0513360Y0071795D01*
X0514922Y0071148D01*
X0514332Y0069403D02*
X0507203Y0069403D01*
X0508771Y0068405D02*
X0512764Y0068405D01*
X0512000Y0067406D02*
X0509536Y0067406D01*
X0509949Y0066408D02*
X0511586Y0066408D01*
X0511518Y0065409D02*
X0510018Y0065409D01*
X0509959Y0064411D02*
X0511576Y0064411D01*
X0511990Y0063412D02*
X0509545Y0063412D01*
X0508794Y0062414D02*
X0512741Y0062414D01*
X0518794Y0062414D02*
X0522741Y0062414D01*
X0521990Y0063412D02*
X0519545Y0063412D01*
X0519959Y0064411D02*
X0521576Y0064411D01*
X0521518Y0065409D02*
X0520018Y0065409D01*
X0519949Y0066408D02*
X0521586Y0066408D01*
X0522000Y0067406D02*
X0519536Y0067406D01*
X0518771Y0068405D02*
X0522764Y0068405D01*
X0524332Y0069403D02*
X0517203Y0069403D01*
X0517223Y0071400D02*
X0524312Y0071400D01*
X0524922Y0071148D02*
X0526613Y0071148D01*
X0528175Y0071795D01*
X0529371Y0072990D01*
X0530018Y0074552D01*
X0530018Y0076243D01*
X0529371Y0077805D01*
X0528175Y0079001D01*
X0526613Y0079648D01*
X0524922Y0079648D01*
X0523360Y0079001D01*
X0522165Y0077805D01*
X0521518Y0076243D01*
X0521518Y0074552D01*
X0522165Y0072990D01*
X0523360Y0071795D01*
X0524922Y0071148D01*
X0527223Y0071400D02*
X0534312Y0071400D01*
X0534922Y0071148D02*
X0536613Y0071148D01*
X0538175Y0071795D01*
X0539371Y0072990D01*
X0540018Y0074552D01*
X0540018Y0076243D01*
X0539371Y0077805D01*
X0538175Y0079001D01*
X0536613Y0079648D01*
X0534922Y0079648D01*
X0533360Y0079001D01*
X0532165Y0077805D01*
X0531518Y0076243D01*
X0531518Y0074552D01*
X0532165Y0072990D01*
X0533360Y0071795D01*
X0534922Y0071148D01*
X0534332Y0069403D02*
X0527203Y0069403D01*
X0528771Y0068405D02*
X0532764Y0068405D01*
X0532000Y0067406D02*
X0529536Y0067406D01*
X0529949Y0066408D02*
X0531586Y0066408D01*
X0531518Y0065409D02*
X0530018Y0065409D01*
X0529959Y0064411D02*
X0531576Y0064411D01*
X0531990Y0063412D02*
X0529545Y0063412D01*
X0528794Y0062414D02*
X0532741Y0062414D01*
X0538794Y0062414D02*
X0573000Y0062414D01*
X0573000Y0063412D02*
X0539545Y0063412D01*
X0539959Y0064411D02*
X0573000Y0064411D01*
X0573000Y0065409D02*
X0540018Y0065409D01*
X0539949Y0066408D02*
X0573000Y0066408D01*
X0573000Y0067406D02*
X0539536Y0067406D01*
X0538771Y0068405D02*
X0573000Y0068405D01*
X0573000Y0069403D02*
X0537203Y0069403D01*
X0537223Y0071400D02*
X0573000Y0071400D01*
X0573000Y0070402D02*
X0006000Y0070402D01*
X0006000Y0071400D02*
X0364312Y0071400D01*
X0362756Y0072399D02*
X0006000Y0072399D01*
X0006000Y0073397D02*
X0361996Y0073397D01*
X0361583Y0074396D02*
X0006000Y0074396D01*
X0006000Y0075394D02*
X0361518Y0075394D01*
X0361580Y0076393D02*
X0006000Y0076393D01*
X0006000Y0077391D02*
X0361993Y0077391D01*
X0362750Y0078390D02*
X0006000Y0078390D01*
X0006000Y0079388D02*
X0364296Y0079388D01*
X0367239Y0079388D02*
X0374296Y0079388D01*
X0372750Y0078390D02*
X0368786Y0078390D01*
X0369542Y0077391D02*
X0371993Y0077391D01*
X0371580Y0076393D02*
X0369956Y0076393D01*
X0370018Y0075394D02*
X0371518Y0075394D01*
X0371583Y0074396D02*
X0369953Y0074396D01*
X0369539Y0073397D02*
X0371996Y0073397D01*
X0372756Y0072399D02*
X0368779Y0072399D01*
X0364332Y0069403D02*
X0006000Y0069403D01*
X0006000Y0080387D02*
X0573000Y0080387D01*
X0573000Y0081385D02*
X0006000Y0081385D01*
X0006000Y0082384D02*
X0573000Y0082384D01*
X0573000Y0083382D02*
X0006000Y0083382D01*
X0006000Y0084381D02*
X0573000Y0084381D01*
X0573000Y0085379D02*
X0006000Y0085379D01*
X0006000Y0086378D02*
X0573000Y0086378D01*
X0573000Y0087376D02*
X0006000Y0087376D01*
X0006000Y0088375D02*
X0573000Y0088375D01*
X0573000Y0089373D02*
X0006000Y0089373D01*
X0006000Y0090372D02*
X0573000Y0090372D01*
X0573000Y0091370D02*
X0006000Y0091370D01*
X0006000Y0092369D02*
X0573000Y0092369D01*
X0573000Y0093368D02*
X0006000Y0093368D01*
X0006000Y0094366D02*
X0573000Y0094366D01*
X0573000Y0095365D02*
X0006000Y0095365D01*
X0006000Y0096363D02*
X0573000Y0096363D01*
X0573000Y0097362D02*
X0006000Y0097362D01*
X0006000Y0098360D02*
X0016961Y0098360D01*
X0017773Y0098024D02*
X0015702Y0098881D01*
X0014118Y0100466D01*
X0013260Y0102537D01*
X0013260Y0104778D01*
X0014118Y0106849D01*
X0015702Y0108434D01*
X0017773Y0109291D01*
X0020014Y0109291D01*
X0022085Y0108434D01*
X0023670Y0106849D01*
X0024528Y0104778D01*
X0024528Y0102537D01*
X0023670Y0100466D01*
X0022085Y0098881D01*
X0020014Y0098024D01*
X0017773Y0098024D01*
X0015225Y0099359D02*
X0006000Y0099359D01*
X0006000Y0100357D02*
X0014227Y0100357D01*
X0013749Y0101356D02*
X0006000Y0101356D01*
X0006000Y0102354D02*
X0013336Y0102354D01*
X0013260Y0103353D02*
X0006000Y0103353D01*
X0006000Y0104351D02*
X0013260Y0104351D01*
X0013497Y0105350D02*
X0006000Y0105350D01*
X0006000Y0106348D02*
X0013910Y0106348D01*
X0014615Y0107347D02*
X0006000Y0107347D01*
X0006000Y0108345D02*
X0015614Y0108345D01*
X0022173Y0108345D02*
X0064827Y0108345D01*
X0064915Y0108434D02*
X0063330Y0106849D01*
X0062472Y0104778D01*
X0062472Y0102537D01*
X0063330Y0100466D01*
X0064915Y0098881D01*
X0066986Y0098024D01*
X0069227Y0098024D01*
X0071298Y0098881D01*
X0072882Y0100466D01*
X0073740Y0102537D01*
X0073740Y0104778D01*
X0072882Y0106849D01*
X0071298Y0108434D01*
X0069227Y0109291D01*
X0066986Y0109291D01*
X0064915Y0108434D01*
X0063828Y0107347D02*
X0023172Y0107347D01*
X0023877Y0106348D02*
X0063123Y0106348D01*
X0062709Y0105350D02*
X0024291Y0105350D01*
X0024528Y0104351D02*
X0062472Y0104351D01*
X0062472Y0103353D02*
X0024528Y0103353D01*
X0024452Y0102354D02*
X0062548Y0102354D01*
X0062962Y0101356D02*
X0024038Y0101356D01*
X0023561Y0100357D02*
X0063439Y0100357D01*
X0064438Y0099359D02*
X0022562Y0099359D01*
X0020827Y0098360D02*
X0066173Y0098360D01*
X0070039Y0098360D02*
X0112961Y0098360D01*
X0113773Y0098024D02*
X0116014Y0098024D01*
X0118085Y0098881D01*
X0119670Y0100466D01*
X0120528Y0102537D01*
X0120528Y0104778D01*
X0119670Y0106849D01*
X0118085Y0108434D01*
X0116014Y0109291D01*
X0113773Y0109291D01*
X0111702Y0108434D01*
X0110118Y0106849D01*
X0109260Y0104778D01*
X0109260Y0102537D01*
X0110118Y0100466D01*
X0111702Y0098881D01*
X0113773Y0098024D01*
X0111225Y0099359D02*
X0071775Y0099359D01*
X0072773Y0100357D02*
X0110227Y0100357D01*
X0109749Y0101356D02*
X0073251Y0101356D01*
X0073664Y0102354D02*
X0109336Y0102354D01*
X0109260Y0103353D02*
X0073740Y0103353D01*
X0073740Y0104351D02*
X0109260Y0104351D01*
X0109497Y0105350D02*
X0073503Y0105350D01*
X0073090Y0106348D02*
X0109910Y0106348D01*
X0110615Y0107347D02*
X0072385Y0107347D01*
X0071386Y0108345D02*
X0111614Y0108345D01*
X0118173Y0108345D02*
X0160827Y0108345D01*
X0160915Y0108434D02*
X0159330Y0106849D01*
X0158472Y0104778D01*
X0158472Y0102537D01*
X0159330Y0100466D01*
X0160915Y0098881D01*
X0162986Y0098024D01*
X0165227Y0098024D01*
X0167298Y0098881D01*
X0168882Y0100466D01*
X0169740Y0102537D01*
X0169740Y0104778D01*
X0168882Y0106849D01*
X0167298Y0108434D01*
X0165227Y0109291D01*
X0162986Y0109291D01*
X0160915Y0108434D01*
X0159828Y0107347D02*
X0119172Y0107347D01*
X0119877Y0106348D02*
X0159123Y0106348D01*
X0158709Y0105350D02*
X0120291Y0105350D01*
X0120528Y0104351D02*
X0158472Y0104351D01*
X0158472Y0103353D02*
X0120528Y0103353D01*
X0120452Y0102354D02*
X0158548Y0102354D01*
X0158962Y0101356D02*
X0120038Y0101356D01*
X0119561Y0100357D02*
X0159439Y0100357D01*
X0160438Y0099359D02*
X0118562Y0099359D01*
X0116827Y0098360D02*
X0162173Y0098360D01*
X0166039Y0098360D02*
X0204961Y0098360D01*
X0205773Y0098024D02*
X0208014Y0098024D01*
X0210085Y0098881D01*
X0211670Y0100466D01*
X0212528Y0102537D01*
X0212528Y0104778D01*
X0211670Y0106849D01*
X0210085Y0108434D01*
X0208014Y0109291D01*
X0205773Y0109291D01*
X0203702Y0108434D01*
X0202118Y0106849D01*
X0201260Y0104778D01*
X0201260Y0102537D01*
X0202118Y0100466D01*
X0203702Y0098881D01*
X0205773Y0098024D01*
X0203225Y0099359D02*
X0167775Y0099359D01*
X0168773Y0100357D02*
X0202227Y0100357D01*
X0201749Y0101356D02*
X0169251Y0101356D01*
X0169664Y0102354D02*
X0201336Y0102354D01*
X0201260Y0103353D02*
X0169740Y0103353D01*
X0169740Y0104351D02*
X0201260Y0104351D01*
X0201497Y0105350D02*
X0169503Y0105350D01*
X0169090Y0106348D02*
X0201910Y0106348D01*
X0202615Y0107347D02*
X0168385Y0107347D01*
X0167386Y0108345D02*
X0203614Y0108345D01*
X0210173Y0108345D02*
X0252827Y0108345D01*
X0252915Y0108434D02*
X0251330Y0106849D01*
X0250472Y0104778D01*
X0250472Y0102537D01*
X0251330Y0100466D01*
X0252915Y0098881D01*
X0254986Y0098024D01*
X0257227Y0098024D01*
X0259298Y0098881D01*
X0260882Y0100466D01*
X0261740Y0102537D01*
X0261740Y0104778D01*
X0260882Y0106849D01*
X0259298Y0108434D01*
X0257227Y0109291D01*
X0254986Y0109291D01*
X0252915Y0108434D01*
X0251828Y0107347D02*
X0211172Y0107347D01*
X0211877Y0106348D02*
X0251123Y0106348D01*
X0250709Y0105350D02*
X0212291Y0105350D01*
X0212528Y0104351D02*
X0250472Y0104351D01*
X0250472Y0103353D02*
X0212528Y0103353D01*
X0212452Y0102354D02*
X0250548Y0102354D01*
X0250962Y0101356D02*
X0212038Y0101356D01*
X0211561Y0100357D02*
X0251439Y0100357D01*
X0252438Y0099359D02*
X0210562Y0099359D01*
X0208827Y0098360D02*
X0254173Y0098360D01*
X0258039Y0098360D02*
X0573000Y0098360D01*
X0573000Y0099359D02*
X0259775Y0099359D01*
X0260773Y0100357D02*
X0573000Y0100357D01*
X0573000Y0101356D02*
X0261251Y0101356D01*
X0261664Y0102354D02*
X0573000Y0102354D01*
X0573000Y0103353D02*
X0261740Y0103353D01*
X0261740Y0104351D02*
X0573000Y0104351D01*
X0573000Y0105350D02*
X0261503Y0105350D01*
X0261090Y0106348D02*
X0573000Y0106348D01*
X0573000Y0107347D02*
X0260385Y0107347D01*
X0259386Y0108345D02*
X0573000Y0108345D01*
X0573000Y0109344D02*
X0006000Y0109344D01*
X0006000Y0110342D02*
X0573000Y0110342D01*
X0573000Y0111341D02*
X0006000Y0111341D01*
X0006000Y0112339D02*
X0573000Y0112339D01*
X0573000Y0113338D02*
X0006000Y0113338D01*
X0006000Y0114336D02*
X0573000Y0114336D01*
X0573000Y0115335D02*
X0006000Y0115335D01*
X0006000Y0116333D02*
X0573000Y0116333D01*
X0573000Y0117332D02*
X0006000Y0117332D01*
X0006000Y0118330D02*
X0016272Y0118330D01*
X0015702Y0118566D02*
X0017773Y0117709D01*
X0020014Y0117709D01*
X0022085Y0118566D01*
X0023670Y0120151D01*
X0024528Y0122222D01*
X0024528Y0124463D01*
X0023670Y0126534D01*
X0022085Y0128119D01*
X0020014Y0128976D01*
X0017773Y0128976D01*
X0015702Y0128119D01*
X0014118Y0126534D01*
X0013260Y0124463D01*
X0013260Y0122222D01*
X0014118Y0120151D01*
X0015702Y0118566D01*
X0014940Y0119329D02*
X0006000Y0119329D01*
X0006000Y0120327D02*
X0014045Y0120327D01*
X0013631Y0121326D02*
X0006000Y0121326D01*
X0006000Y0122324D02*
X0013260Y0122324D01*
X0013260Y0123323D02*
X0006000Y0123323D01*
X0006000Y0124321D02*
X0013260Y0124321D01*
X0013615Y0125320D02*
X0006000Y0125320D01*
X0006000Y0126318D02*
X0014028Y0126318D01*
X0014901Y0127317D02*
X0006000Y0127317D01*
X0006000Y0128315D02*
X0016177Y0128315D01*
X0021610Y0128315D02*
X0065390Y0128315D01*
X0064915Y0128119D02*
X0063330Y0126534D01*
X0062472Y0124463D01*
X0062472Y0122222D01*
X0063330Y0120151D01*
X0064915Y0118566D01*
X0066986Y0117709D01*
X0069227Y0117709D01*
X0071298Y0118566D01*
X0072882Y0120151D01*
X0073740Y0122222D01*
X0073740Y0124463D01*
X0072882Y0126534D01*
X0071298Y0128119D01*
X0069227Y0128976D01*
X0066986Y0128976D01*
X0064915Y0128119D01*
X0064113Y0127317D02*
X0022887Y0127317D01*
X0023759Y0126318D02*
X0063241Y0126318D01*
X0062827Y0125320D02*
X0024173Y0125320D01*
X0024528Y0124321D02*
X0062472Y0124321D01*
X0062472Y0123323D02*
X0024528Y0123323D01*
X0024528Y0122324D02*
X0062472Y0122324D01*
X0062844Y0121326D02*
X0024156Y0121326D01*
X0023743Y0120327D02*
X0063257Y0120327D01*
X0064153Y0119329D02*
X0022847Y0119329D01*
X0021515Y0118330D02*
X0065485Y0118330D01*
X0070728Y0118330D02*
X0112272Y0118330D01*
X0111702Y0118566D02*
X0113773Y0117709D01*
X0116014Y0117709D01*
X0118085Y0118566D01*
X0119670Y0120151D01*
X0120528Y0122222D01*
X0120528Y0124463D01*
X0119670Y0126534D01*
X0118085Y0128119D01*
X0116014Y0128976D01*
X0113773Y0128976D01*
X0111702Y0128119D01*
X0110118Y0126534D01*
X0109260Y0124463D01*
X0109260Y0122222D01*
X0110118Y0120151D01*
X0111702Y0118566D01*
X0110940Y0119329D02*
X0072060Y0119329D01*
X0072955Y0120327D02*
X0110045Y0120327D01*
X0109631Y0121326D02*
X0073369Y0121326D01*
X0073740Y0122324D02*
X0109260Y0122324D01*
X0109260Y0123323D02*
X0073740Y0123323D01*
X0073740Y0124321D02*
X0109260Y0124321D01*
X0109615Y0125320D02*
X0073385Y0125320D01*
X0072972Y0126318D02*
X0110028Y0126318D01*
X0110901Y0127317D02*
X0072099Y0127317D01*
X0070823Y0128315D02*
X0112177Y0128315D01*
X0117610Y0128315D02*
X0161390Y0128315D01*
X0160915Y0128119D02*
X0159330Y0126534D01*
X0158472Y0124463D01*
X0158472Y0122222D01*
X0159330Y0120151D01*
X0160915Y0118566D01*
X0162986Y0117709D01*
X0165227Y0117709D01*
X0167298Y0118566D01*
X0168882Y0120151D01*
X0169740Y0122222D01*
X0169740Y0124463D01*
X0168882Y0126534D01*
X0167298Y0128119D01*
X0165227Y0128976D01*
X0162986Y0128976D01*
X0160915Y0128119D01*
X0160113Y0127317D02*
X0118887Y0127317D01*
X0119759Y0126318D02*
X0159241Y0126318D01*
X0158827Y0125320D02*
X0120173Y0125320D01*
X0120528Y0124321D02*
X0158472Y0124321D01*
X0158472Y0123323D02*
X0120528Y0123323D01*
X0120528Y0122324D02*
X0158472Y0122324D01*
X0158844Y0121326D02*
X0120156Y0121326D01*
X0119743Y0120327D02*
X0159257Y0120327D01*
X0160153Y0119329D02*
X0118847Y0119329D01*
X0117515Y0118330D02*
X0161485Y0118330D01*
X0166728Y0118330D02*
X0204272Y0118330D01*
X0203702Y0118566D02*
X0205773Y0117709D01*
X0208014Y0117709D01*
X0210085Y0118566D01*
X0211670Y0120151D01*
X0212528Y0122222D01*
X0212528Y0124463D01*
X0211670Y0126534D01*
X0210085Y0128119D01*
X0208014Y0128976D01*
X0205773Y0128976D01*
X0203702Y0128119D01*
X0202118Y0126534D01*
X0201260Y0124463D01*
X0201260Y0122222D01*
X0202118Y0120151D01*
X0203702Y0118566D01*
X0202940Y0119329D02*
X0168060Y0119329D01*
X0168955Y0120327D02*
X0202045Y0120327D01*
X0201631Y0121326D02*
X0169369Y0121326D01*
X0169740Y0122324D02*
X0201260Y0122324D01*
X0201260Y0123323D02*
X0169740Y0123323D01*
X0169740Y0124321D02*
X0201260Y0124321D01*
X0201615Y0125320D02*
X0169385Y0125320D01*
X0168972Y0126318D02*
X0202028Y0126318D01*
X0202901Y0127317D02*
X0168099Y0127317D01*
X0166823Y0128315D02*
X0204177Y0128315D01*
X0209610Y0128315D02*
X0253390Y0128315D01*
X0252915Y0128119D02*
X0251330Y0126534D01*
X0250472Y0124463D01*
X0250472Y0122222D01*
X0251330Y0120151D01*
X0252915Y0118566D01*
X0254986Y0117709D01*
X0257227Y0117709D01*
X0259298Y0118566D01*
X0260882Y0120151D01*
X0261740Y0122222D01*
X0261740Y0124463D01*
X0260882Y0126534D01*
X0259298Y0128119D01*
X0257227Y0128976D01*
X0254986Y0128976D01*
X0252915Y0128119D01*
X0252113Y0127317D02*
X0210887Y0127317D01*
X0211759Y0126318D02*
X0251241Y0126318D01*
X0250827Y0125320D02*
X0212173Y0125320D01*
X0212528Y0124321D02*
X0250472Y0124321D01*
X0250472Y0123323D02*
X0212528Y0123323D01*
X0212528Y0122324D02*
X0250472Y0122324D01*
X0250844Y0121326D02*
X0212156Y0121326D01*
X0211743Y0120327D02*
X0251257Y0120327D01*
X0252153Y0119329D02*
X0210847Y0119329D01*
X0209515Y0118330D02*
X0253485Y0118330D01*
X0258728Y0118330D02*
X0573000Y0118330D01*
X0573000Y0119329D02*
X0260060Y0119329D01*
X0260955Y0120327D02*
X0573000Y0120327D01*
X0573000Y0121326D02*
X0261369Y0121326D01*
X0261740Y0122324D02*
X0573000Y0122324D01*
X0573000Y0123323D02*
X0261740Y0123323D01*
X0261740Y0124321D02*
X0573000Y0124321D01*
X0573000Y0125320D02*
X0261385Y0125320D01*
X0260972Y0126318D02*
X0573000Y0126318D01*
X0573000Y0127317D02*
X0260099Y0127317D01*
X0258823Y0128315D02*
X0573000Y0128315D01*
X0573000Y0129314D02*
X0006000Y0129314D01*
X0006000Y0130312D02*
X0573000Y0130312D01*
X0573000Y0131311D02*
X0006000Y0131311D01*
X0006000Y0132309D02*
X0573000Y0132309D01*
X0573000Y0133308D02*
X0006000Y0133308D01*
X0006000Y0134306D02*
X0573000Y0134306D01*
X0573000Y0135305D02*
X0006000Y0135305D01*
X0006000Y0136303D02*
X0573000Y0136303D01*
X0573000Y0137302D02*
X0006000Y0137302D01*
X0006000Y0138301D02*
X0573000Y0138301D01*
X0573000Y0139299D02*
X0006000Y0139299D01*
X0006000Y0140298D02*
X0573000Y0140298D01*
X0573000Y0141296D02*
X0006000Y0141296D01*
X0006000Y0142295D02*
X0573000Y0142295D01*
X0573000Y0143293D02*
X0006000Y0143293D01*
X0006000Y0144292D02*
X0573000Y0144292D01*
X0573000Y0145290D02*
X0006000Y0145290D01*
X0006000Y0146289D02*
X0573000Y0146289D01*
X0573000Y0147287D02*
X0006000Y0147287D01*
X0006000Y0148286D02*
X0573000Y0148286D01*
X0573000Y0149284D02*
X0006000Y0149284D01*
X0006000Y0150283D02*
X0573000Y0150283D01*
X0573000Y0151281D02*
X0006000Y0151281D01*
X0006000Y0152280D02*
X0573000Y0152280D01*
X0573000Y0153278D02*
X0006000Y0153278D01*
X0006000Y0154277D02*
X0573000Y0154277D01*
X0573000Y0155275D02*
X0006000Y0155275D01*
X0006000Y0156274D02*
X0573000Y0156274D01*
X0573000Y0157272D02*
X0006000Y0157272D01*
X0006000Y0158271D02*
X0573000Y0158271D01*
X0573000Y0159269D02*
X0006000Y0159269D01*
X0006000Y0160268D02*
X0573000Y0160268D01*
X0573000Y0161266D02*
X0536900Y0161266D01*
X0536613Y0161148D02*
X0538175Y0161795D01*
X0539371Y0162990D01*
X0540018Y0164552D01*
X0540018Y0166243D01*
X0539371Y0167805D01*
X0538175Y0169001D01*
X0536613Y0169648D01*
X0534922Y0169648D01*
X0533360Y0169001D01*
X0532165Y0167805D01*
X0531518Y0166243D01*
X0531518Y0164552D01*
X0532165Y0162990D01*
X0533360Y0161795D01*
X0534922Y0161148D01*
X0536613Y0161148D01*
X0534636Y0161266D02*
X0526900Y0161266D01*
X0526613Y0161148D02*
X0528175Y0161795D01*
X0529371Y0162990D01*
X0530018Y0164552D01*
X0530018Y0166243D01*
X0529371Y0167805D01*
X0528175Y0169001D01*
X0526613Y0169648D01*
X0524922Y0169648D01*
X0523360Y0169001D01*
X0522165Y0167805D01*
X0521518Y0166243D01*
X0521518Y0164552D01*
X0522165Y0162990D01*
X0523360Y0161795D01*
X0524922Y0161148D01*
X0526613Y0161148D01*
X0524636Y0161266D02*
X0516900Y0161266D01*
X0516613Y0161148D02*
X0518175Y0161795D01*
X0519371Y0162990D01*
X0520018Y0164552D01*
X0520018Y0166243D01*
X0519371Y0167805D01*
X0518175Y0169001D01*
X0516613Y0169648D01*
X0514922Y0169648D01*
X0513360Y0169001D01*
X0512165Y0167805D01*
X0511518Y0166243D01*
X0511518Y0164552D01*
X0512165Y0162990D01*
X0513360Y0161795D01*
X0514922Y0161148D01*
X0516613Y0161148D01*
X0514636Y0161266D02*
X0506900Y0161266D01*
X0506613Y0161148D02*
X0508175Y0161795D01*
X0509371Y0162990D01*
X0510018Y0164552D01*
X0510018Y0166243D01*
X0509371Y0167805D01*
X0508175Y0169001D01*
X0506613Y0169648D01*
X0504922Y0169648D01*
X0503360Y0169001D01*
X0502165Y0167805D01*
X0501518Y0166243D01*
X0501518Y0164552D01*
X0502165Y0162990D01*
X0503360Y0161795D01*
X0504922Y0161148D01*
X0506613Y0161148D01*
X0504636Y0161266D02*
X0496900Y0161266D01*
X0496613Y0161148D02*
X0498175Y0161795D01*
X0499371Y0162990D01*
X0500018Y0164552D01*
X0500018Y0166243D01*
X0499371Y0167805D01*
X0498175Y0169001D01*
X0496613Y0169648D01*
X0494922Y0169648D01*
X0493360Y0169001D01*
X0492165Y0167805D01*
X0491518Y0166243D01*
X0491518Y0164552D01*
X0492165Y0162990D01*
X0493360Y0161795D01*
X0494922Y0161148D01*
X0496613Y0161148D01*
X0494636Y0161266D02*
X0486900Y0161266D01*
X0486613Y0161148D02*
X0488175Y0161795D01*
X0489371Y0162990D01*
X0490018Y0164552D01*
X0490018Y0166243D01*
X0489371Y0167805D01*
X0488175Y0169001D01*
X0486613Y0169648D01*
X0484922Y0169648D01*
X0483360Y0169001D01*
X0482165Y0167805D01*
X0481518Y0166243D01*
X0481518Y0164552D01*
X0482165Y0162990D01*
X0483360Y0161795D01*
X0484922Y0161148D01*
X0486613Y0161148D01*
X0484636Y0161266D02*
X0476806Y0161266D01*
X0476763Y0161252D02*
X0477399Y0161459D01*
X0477995Y0161763D01*
X0478536Y0162156D01*
X0479009Y0162629D01*
X0479403Y0163170D01*
X0479706Y0163766D01*
X0479913Y0164402D01*
X0480011Y0165023D01*
X0476143Y0165023D01*
X0476143Y0165773D01*
X0475393Y0165773D01*
X0475393Y0169641D01*
X0474773Y0169543D01*
X0474136Y0169336D01*
X0473540Y0169033D01*
X0472999Y0168639D01*
X0472526Y0168166D01*
X0472133Y0167625D01*
X0471829Y0167029D01*
X0471622Y0166393D01*
X0471524Y0165773D01*
X0475393Y0165773D01*
X0475393Y0165023D01*
X0476143Y0165023D01*
X0476143Y0161154D01*
X0476763Y0161252D01*
X0476143Y0161266D02*
X0475393Y0161266D01*
X0475393Y0161154D02*
X0475393Y0165023D01*
X0471524Y0165023D01*
X0471622Y0164402D01*
X0471829Y0163766D01*
X0472133Y0163170D01*
X0472526Y0162629D01*
X0472999Y0162156D01*
X0473540Y0161763D01*
X0474136Y0161459D01*
X0474773Y0161252D01*
X0475393Y0161154D01*
X0474729Y0161266D02*
X0466900Y0161266D01*
X0466613Y0161148D02*
X0468175Y0161795D01*
X0469371Y0162990D01*
X0470018Y0164552D01*
X0470018Y0166243D01*
X0469371Y0167805D01*
X0468175Y0169001D01*
X0466613Y0169648D01*
X0464922Y0169648D01*
X0463360Y0169001D01*
X0462165Y0167805D01*
X0461518Y0166243D01*
X0461518Y0164552D01*
X0462165Y0162990D01*
X0463360Y0161795D01*
X0464922Y0161148D01*
X0466613Y0161148D01*
X0464636Y0161266D02*
X0456900Y0161266D01*
X0456613Y0161148D02*
X0458175Y0161795D01*
X0459371Y0162990D01*
X0460018Y0164552D01*
X0460018Y0166243D01*
X0459371Y0167805D01*
X0458175Y0169001D01*
X0456613Y0169648D01*
X0454922Y0169648D01*
X0453360Y0169001D01*
X0452165Y0167805D01*
X0451518Y0166243D01*
X0451518Y0164552D01*
X0452165Y0162990D01*
X0453360Y0161795D01*
X0454922Y0161148D01*
X0456613Y0161148D01*
X0454636Y0161266D02*
X0446900Y0161266D01*
X0446613Y0161148D02*
X0448175Y0161795D01*
X0449371Y0162990D01*
X0450018Y0164552D01*
X0450018Y0166243D01*
X0449371Y0167805D01*
X0448175Y0169001D01*
X0446613Y0169648D01*
X0444922Y0169648D01*
X0443360Y0169001D01*
X0442165Y0167805D01*
X0441518Y0166243D01*
X0441518Y0164552D01*
X0442165Y0162990D01*
X0443360Y0161795D01*
X0444922Y0161148D01*
X0446613Y0161148D01*
X0444636Y0161266D02*
X0436900Y0161266D01*
X0436613Y0161148D02*
X0438175Y0161795D01*
X0439371Y0162990D01*
X0440018Y0164552D01*
X0440018Y0166243D01*
X0439371Y0167805D01*
X0438175Y0169001D01*
X0436613Y0169648D01*
X0434922Y0169648D01*
X0433360Y0169001D01*
X0432165Y0167805D01*
X0431518Y0166243D01*
X0431518Y0164552D01*
X0432165Y0162990D01*
X0433360Y0161795D01*
X0434922Y0161148D01*
X0436613Y0161148D01*
X0434636Y0161266D02*
X0426900Y0161266D01*
X0426613Y0161148D02*
X0428175Y0161795D01*
X0429371Y0162990D01*
X0430018Y0164552D01*
X0430018Y0166243D01*
X0429371Y0167805D01*
X0428175Y0169001D01*
X0426613Y0169648D01*
X0424922Y0169648D01*
X0423360Y0169001D01*
X0422165Y0167805D01*
X0421518Y0166243D01*
X0421518Y0164552D01*
X0422165Y0162990D01*
X0423360Y0161795D01*
X0424922Y0161148D01*
X0426613Y0161148D01*
X0424636Y0161266D02*
X0416900Y0161266D01*
X0416613Y0161148D02*
X0418175Y0161795D01*
X0419371Y0162990D01*
X0420018Y0164552D01*
X0420018Y0166243D01*
X0419371Y0167805D01*
X0418175Y0169001D01*
X0416613Y0169648D01*
X0414922Y0169648D01*
X0413360Y0169001D01*
X0412165Y0167805D01*
X0411518Y0166243D01*
X0411518Y0164552D01*
X0412165Y0162990D01*
X0413360Y0161795D01*
X0414922Y0161148D01*
X0416613Y0161148D01*
X0414636Y0161266D02*
X0406900Y0161266D01*
X0406613Y0161148D02*
X0408175Y0161795D01*
X0409371Y0162990D01*
X0410018Y0164552D01*
X0410018Y0166243D01*
X0409371Y0167805D01*
X0408175Y0169001D01*
X0406613Y0169648D01*
X0404922Y0169648D01*
X0403360Y0169001D01*
X0402165Y0167805D01*
X0401518Y0166243D01*
X0401518Y0164552D01*
X0402165Y0162990D01*
X0403360Y0161795D01*
X0404922Y0161148D01*
X0406613Y0161148D01*
X0404636Y0161266D02*
X0396900Y0161266D01*
X0396613Y0161148D02*
X0398175Y0161795D01*
X0399371Y0162990D01*
X0400018Y0164552D01*
X0400018Y0166243D01*
X0399371Y0167805D01*
X0398175Y0169001D01*
X0396613Y0169648D01*
X0394922Y0169648D01*
X0393360Y0169001D01*
X0392165Y0167805D01*
X0391518Y0166243D01*
X0391518Y0164552D01*
X0392165Y0162990D01*
X0393360Y0161795D01*
X0394922Y0161148D01*
X0396613Y0161148D01*
X0394636Y0161266D02*
X0386900Y0161266D01*
X0386613Y0161148D02*
X0388175Y0161795D01*
X0389371Y0162990D01*
X0390018Y0164552D01*
X0390018Y0166243D01*
X0389371Y0167805D01*
X0388175Y0169001D01*
X0386613Y0169648D01*
X0384922Y0169648D01*
X0383360Y0169001D01*
X0382165Y0167805D01*
X0381518Y0166243D01*
X0381518Y0164552D01*
X0382165Y0162990D01*
X0383360Y0161795D01*
X0384922Y0161148D01*
X0386613Y0161148D01*
X0384636Y0161266D02*
X0376900Y0161266D01*
X0376613Y0161148D02*
X0378175Y0161795D01*
X0379371Y0162990D01*
X0380018Y0164552D01*
X0380018Y0166243D01*
X0379371Y0167805D01*
X0378175Y0169001D01*
X0376613Y0169648D01*
X0374922Y0169648D01*
X0373360Y0169001D01*
X0372165Y0167805D01*
X0371518Y0166243D01*
X0371518Y0164552D01*
X0372165Y0162990D01*
X0373360Y0161795D01*
X0374922Y0161148D01*
X0376613Y0161148D01*
X0374636Y0161266D02*
X0366900Y0161266D01*
X0366613Y0161148D02*
X0368175Y0161795D01*
X0369371Y0162990D01*
X0370018Y0164552D01*
X0370018Y0166243D01*
X0369371Y0167805D01*
X0368175Y0169001D01*
X0366613Y0169648D01*
X0364922Y0169648D01*
X0363360Y0169001D01*
X0362165Y0167805D01*
X0361518Y0166243D01*
X0361518Y0164552D01*
X0362165Y0162990D01*
X0363360Y0161795D01*
X0364922Y0161148D01*
X0366613Y0161148D01*
X0364636Y0161266D02*
X0006000Y0161266D01*
X0006000Y0162265D02*
X0362890Y0162265D01*
X0362052Y0163263D02*
X0006000Y0163263D01*
X0006000Y0164262D02*
X0361638Y0164262D01*
X0361518Y0165260D02*
X0006000Y0165260D01*
X0006000Y0166259D02*
X0361524Y0166259D01*
X0361938Y0167257D02*
X0006000Y0167257D01*
X0006000Y0168256D02*
X0362616Y0168256D01*
X0363973Y0169254D02*
X0006000Y0169254D01*
X0006000Y0170253D02*
X0573000Y0170253D01*
X0573000Y0171251D02*
X0536864Y0171251D01*
X0536613Y0171148D02*
X0538175Y0171795D01*
X0539371Y0172990D01*
X0540018Y0174552D01*
X0540018Y0176243D01*
X0539371Y0177805D01*
X0538175Y0179001D01*
X0536613Y0179648D01*
X0534922Y0179648D01*
X0533360Y0179001D01*
X0532165Y0177805D01*
X0531518Y0176243D01*
X0531518Y0174552D01*
X0532165Y0172990D01*
X0533360Y0171795D01*
X0534922Y0171148D01*
X0536613Y0171148D01*
X0534672Y0171251D02*
X0526864Y0171251D01*
X0526613Y0171148D02*
X0528175Y0171795D01*
X0529371Y0172990D01*
X0530018Y0174552D01*
X0530018Y0176243D01*
X0529371Y0177805D01*
X0528175Y0179001D01*
X0526613Y0179648D01*
X0524922Y0179648D01*
X0523360Y0179001D01*
X0522165Y0177805D01*
X0521518Y0176243D01*
X0521518Y0174552D01*
X0522165Y0172990D01*
X0523360Y0171795D01*
X0524922Y0171148D01*
X0526613Y0171148D01*
X0524672Y0171251D02*
X0516864Y0171251D01*
X0516613Y0171148D02*
X0518175Y0171795D01*
X0519371Y0172990D01*
X0520018Y0174552D01*
X0520018Y0176243D01*
X0519371Y0177805D01*
X0518175Y0179001D01*
X0516613Y0179648D01*
X0514922Y0179648D01*
X0513360Y0179001D01*
X0512165Y0177805D01*
X0511518Y0176243D01*
X0511518Y0174552D01*
X0512165Y0172990D01*
X0513360Y0171795D01*
X0514922Y0171148D01*
X0516613Y0171148D01*
X0514672Y0171251D02*
X0506864Y0171251D01*
X0506613Y0171148D02*
X0508175Y0171795D01*
X0509371Y0172990D01*
X0510018Y0174552D01*
X0510018Y0176243D01*
X0509371Y0177805D01*
X0508175Y0179001D01*
X0506613Y0179648D01*
X0504922Y0179648D01*
X0503360Y0179001D01*
X0502165Y0177805D01*
X0501518Y0176243D01*
X0501518Y0174552D01*
X0502165Y0172990D01*
X0503360Y0171795D01*
X0504922Y0171148D01*
X0506613Y0171148D01*
X0504672Y0171251D02*
X0496864Y0171251D01*
X0496613Y0171148D02*
X0498175Y0171795D01*
X0499371Y0172990D01*
X0500018Y0174552D01*
X0500018Y0176243D01*
X0499371Y0177805D01*
X0498175Y0179001D01*
X0496613Y0179648D01*
X0494922Y0179648D01*
X0493360Y0179001D01*
X0492165Y0177805D01*
X0491518Y0176243D01*
X0491518Y0174552D01*
X0492165Y0172990D01*
X0493360Y0171795D01*
X0494922Y0171148D01*
X0496613Y0171148D01*
X0494672Y0171251D02*
X0486864Y0171251D01*
X0486613Y0171148D02*
X0488175Y0171795D01*
X0489371Y0172990D01*
X0490018Y0174552D01*
X0490018Y0176243D01*
X0489371Y0177805D01*
X0488175Y0179001D01*
X0486613Y0179648D01*
X0484922Y0179648D01*
X0483360Y0179001D01*
X0482165Y0177805D01*
X0481518Y0176243D01*
X0481518Y0174552D01*
X0482165Y0172990D01*
X0483360Y0171795D01*
X0484922Y0171148D01*
X0486613Y0171148D01*
X0484672Y0171251D02*
X0476864Y0171251D01*
X0476613Y0171148D02*
X0478175Y0171795D01*
X0479371Y0172990D01*
X0480018Y0174552D01*
X0480018Y0176243D01*
X0479371Y0177805D01*
X0478175Y0179001D01*
X0476613Y0179648D01*
X0474922Y0179648D01*
X0473360Y0179001D01*
X0472165Y0177805D01*
X0471518Y0176243D01*
X0471518Y0174552D01*
X0472165Y0172990D01*
X0473360Y0171795D01*
X0474922Y0171148D01*
X0476613Y0171148D01*
X0476143Y0169641D02*
X0476763Y0169543D01*
X0477399Y0169336D01*
X0477995Y0169033D01*
X0478536Y0168639D01*
X0479009Y0168166D01*
X0479403Y0167625D01*
X0479706Y0167029D01*
X0479913Y0166393D01*
X0480011Y0165773D01*
X0476143Y0165773D01*
X0476143Y0169641D01*
X0476143Y0169254D02*
X0475393Y0169254D01*
X0475393Y0168256D02*
X0476143Y0168256D01*
X0476143Y0167257D02*
X0475393Y0167257D01*
X0475393Y0166259D02*
X0476143Y0166259D01*
X0476143Y0165260D02*
X0481518Y0165260D01*
X0481524Y0166259D02*
X0479934Y0166259D01*
X0479590Y0167257D02*
X0481938Y0167257D01*
X0482616Y0168256D02*
X0478920Y0168256D01*
X0477560Y0169254D02*
X0483973Y0169254D01*
X0482905Y0172250D02*
X0478630Y0172250D01*
X0479478Y0173248D02*
X0482058Y0173248D01*
X0481644Y0174247D02*
X0479891Y0174247D01*
X0480018Y0175245D02*
X0481518Y0175245D01*
X0481518Y0176244D02*
X0480017Y0176244D01*
X0479604Y0177242D02*
X0481932Y0177242D01*
X0482601Y0178241D02*
X0478935Y0178241D01*
X0477598Y0179239D02*
X0483937Y0179239D01*
X0487598Y0179239D02*
X0493937Y0179239D01*
X0492601Y0178241D02*
X0488935Y0178241D01*
X0489604Y0177242D02*
X0491932Y0177242D01*
X0491518Y0176244D02*
X0490017Y0176244D01*
X0490018Y0175245D02*
X0491518Y0175245D01*
X0491644Y0174247D02*
X0489891Y0174247D01*
X0489478Y0173248D02*
X0492058Y0173248D01*
X0492905Y0172250D02*
X0488630Y0172250D01*
X0487562Y0169254D02*
X0493973Y0169254D01*
X0492616Y0168256D02*
X0488920Y0168256D01*
X0489598Y0167257D02*
X0491938Y0167257D01*
X0491524Y0166259D02*
X0490011Y0166259D01*
X0490018Y0165260D02*
X0491518Y0165260D01*
X0491638Y0164262D02*
X0489897Y0164262D01*
X0489484Y0163263D02*
X0492052Y0163263D01*
X0492890Y0162265D02*
X0488645Y0162265D01*
X0482890Y0162265D02*
X0478645Y0162265D01*
X0479450Y0163263D02*
X0482052Y0163263D01*
X0481638Y0164262D02*
X0479867Y0164262D01*
X0476143Y0164262D02*
X0475393Y0164262D01*
X0475393Y0165260D02*
X0470018Y0165260D01*
X0470011Y0166259D02*
X0471601Y0166259D01*
X0471945Y0167257D02*
X0469598Y0167257D01*
X0468920Y0168256D02*
X0472616Y0168256D01*
X0473976Y0169254D02*
X0467562Y0169254D01*
X0466864Y0171251D02*
X0474672Y0171251D01*
X0472905Y0172250D02*
X0468630Y0172250D01*
X0468175Y0171795D02*
X0469371Y0172990D01*
X0470018Y0174552D01*
X0470018Y0176243D01*
X0469371Y0177805D01*
X0468175Y0179001D01*
X0466613Y0179648D01*
X0464922Y0179648D01*
X0463360Y0179001D01*
X0462165Y0177805D01*
X0461518Y0176243D01*
X0461518Y0174552D01*
X0462165Y0172990D01*
X0463360Y0171795D01*
X0464922Y0171148D01*
X0466613Y0171148D01*
X0468175Y0171795D01*
X0469478Y0173248D02*
X0472058Y0173248D01*
X0471644Y0174247D02*
X0469891Y0174247D01*
X0470018Y0175245D02*
X0471518Y0175245D01*
X0471518Y0176244D02*
X0470017Y0176244D01*
X0469604Y0177242D02*
X0471932Y0177242D01*
X0472601Y0178241D02*
X0468935Y0178241D01*
X0467598Y0179239D02*
X0473937Y0179239D01*
X0463937Y0179239D02*
X0457598Y0179239D01*
X0458175Y0179001D02*
X0456613Y0179648D01*
X0454922Y0179648D01*
X0453360Y0179001D01*
X0452165Y0177805D01*
X0451518Y0176243D01*
X0451518Y0174552D01*
X0452165Y0172990D01*
X0453360Y0171795D01*
X0454922Y0171148D01*
X0456613Y0171148D01*
X0458175Y0171795D01*
X0459371Y0172990D01*
X0460018Y0174552D01*
X0460018Y0176243D01*
X0459371Y0177805D01*
X0458175Y0179001D01*
X0458935Y0178241D02*
X0462601Y0178241D01*
X0461932Y0177242D02*
X0459604Y0177242D01*
X0460017Y0176244D02*
X0461518Y0176244D01*
X0461518Y0175245D02*
X0460018Y0175245D01*
X0459891Y0174247D02*
X0461644Y0174247D01*
X0462058Y0173248D02*
X0459478Y0173248D01*
X0458630Y0172250D02*
X0462905Y0172250D01*
X0464672Y0171251D02*
X0456864Y0171251D01*
X0457562Y0169254D02*
X0463973Y0169254D01*
X0462616Y0168256D02*
X0458920Y0168256D01*
X0459598Y0167257D02*
X0461938Y0167257D01*
X0461524Y0166259D02*
X0460011Y0166259D01*
X0460018Y0165260D02*
X0461518Y0165260D01*
X0461638Y0164262D02*
X0459897Y0164262D01*
X0459484Y0163263D02*
X0462052Y0163263D01*
X0462890Y0162265D02*
X0458645Y0162265D01*
X0452890Y0162265D02*
X0448645Y0162265D01*
X0449484Y0163263D02*
X0452052Y0163263D01*
X0451638Y0164262D02*
X0449897Y0164262D01*
X0450018Y0165260D02*
X0451518Y0165260D01*
X0451524Y0166259D02*
X0450011Y0166259D01*
X0449598Y0167257D02*
X0451938Y0167257D01*
X0452616Y0168256D02*
X0448920Y0168256D01*
X0447562Y0169254D02*
X0453973Y0169254D01*
X0454672Y0171251D02*
X0446864Y0171251D01*
X0446613Y0171148D02*
X0448175Y0171795D01*
X0449371Y0172990D01*
X0450018Y0174552D01*
X0450018Y0176243D01*
X0449371Y0177805D01*
X0448175Y0179001D01*
X0446613Y0179648D01*
X0444922Y0179648D01*
X0443360Y0179001D01*
X0442165Y0177805D01*
X0441518Y0176243D01*
X0441518Y0174552D01*
X0442165Y0172990D01*
X0443360Y0171795D01*
X0444922Y0171148D01*
X0446613Y0171148D01*
X0444672Y0171251D02*
X0436864Y0171251D01*
X0436613Y0171148D02*
X0438175Y0171795D01*
X0439371Y0172990D01*
X0440018Y0174552D01*
X0440018Y0176243D01*
X0439371Y0177805D01*
X0438175Y0179001D01*
X0436613Y0179648D01*
X0434922Y0179648D01*
X0433360Y0179001D01*
X0432165Y0177805D01*
X0431518Y0176243D01*
X0431518Y0174552D01*
X0432165Y0172990D01*
X0433360Y0171795D01*
X0434922Y0171148D01*
X0436613Y0171148D01*
X0434672Y0171251D02*
X0426864Y0171251D01*
X0426613Y0171148D02*
X0428175Y0171795D01*
X0429371Y0172990D01*
X0430018Y0174552D01*
X0430018Y0176243D01*
X0429371Y0177805D01*
X0428175Y0179001D01*
X0426613Y0179648D01*
X0424922Y0179648D01*
X0423360Y0179001D01*
X0422165Y0177805D01*
X0421518Y0176243D01*
X0421518Y0174552D01*
X0422165Y0172990D01*
X0423360Y0171795D01*
X0424922Y0171148D01*
X0426613Y0171148D01*
X0424672Y0171251D02*
X0416864Y0171251D01*
X0416613Y0171148D02*
X0418175Y0171795D01*
X0419371Y0172990D01*
X0420018Y0174552D01*
X0420018Y0176243D01*
X0419371Y0177805D01*
X0418175Y0179001D01*
X0416613Y0179648D01*
X0414922Y0179648D01*
X0413360Y0179001D01*
X0412165Y0177805D01*
X0411518Y0176243D01*
X0411518Y0174552D01*
X0412165Y0172990D01*
X0413360Y0171795D01*
X0414922Y0171148D01*
X0416613Y0171148D01*
X0414672Y0171251D02*
X0406864Y0171251D01*
X0406613Y0171148D02*
X0408175Y0171795D01*
X0409371Y0172990D01*
X0410018Y0174552D01*
X0410018Y0176243D01*
X0409371Y0177805D01*
X0408175Y0179001D01*
X0406613Y0179648D01*
X0404922Y0179648D01*
X0403360Y0179001D01*
X0402165Y0177805D01*
X0401518Y0176243D01*
X0401518Y0174552D01*
X0402165Y0172990D01*
X0403360Y0171795D01*
X0404922Y0171148D01*
X0406613Y0171148D01*
X0404672Y0171251D02*
X0396864Y0171251D01*
X0396613Y0171148D02*
X0398175Y0171795D01*
X0399371Y0172990D01*
X0400018Y0174552D01*
X0400018Y0176243D01*
X0399371Y0177805D01*
X0398175Y0179001D01*
X0396613Y0179648D01*
X0394922Y0179648D01*
X0393360Y0179001D01*
X0392165Y0177805D01*
X0391518Y0176243D01*
X0391518Y0174552D01*
X0392165Y0172990D01*
X0393360Y0171795D01*
X0394922Y0171148D01*
X0396613Y0171148D01*
X0394672Y0171251D02*
X0386864Y0171251D01*
X0386613Y0171148D02*
X0388175Y0171795D01*
X0389371Y0172990D01*
X0390018Y0174552D01*
X0390018Y0176243D01*
X0389371Y0177805D01*
X0388175Y0179001D01*
X0386613Y0179648D01*
X0384922Y0179648D01*
X0383360Y0179001D01*
X0382165Y0177805D01*
X0381518Y0176243D01*
X0381518Y0174552D01*
X0382165Y0172990D01*
X0383360Y0171795D01*
X0384922Y0171148D01*
X0386613Y0171148D01*
X0384672Y0171251D02*
X0376864Y0171251D01*
X0376613Y0171148D02*
X0378175Y0171795D01*
X0379371Y0172990D01*
X0380018Y0174552D01*
X0380018Y0176243D01*
X0379371Y0177805D01*
X0378175Y0179001D01*
X0376613Y0179648D01*
X0374922Y0179648D01*
X0373360Y0179001D01*
X0372165Y0177805D01*
X0371518Y0176243D01*
X0371518Y0174552D01*
X0372165Y0172990D01*
X0373360Y0171795D01*
X0374922Y0171148D01*
X0376613Y0171148D01*
X0374672Y0171251D02*
X0366864Y0171251D01*
X0366613Y0171148D02*
X0368175Y0171795D01*
X0369371Y0172990D01*
X0370018Y0174552D01*
X0370018Y0176243D01*
X0369371Y0177805D01*
X0368175Y0179001D01*
X0366613Y0179648D01*
X0364922Y0179648D01*
X0363360Y0179001D01*
X0362165Y0177805D01*
X0361518Y0176243D01*
X0361518Y0174552D01*
X0362165Y0172990D01*
X0363360Y0171795D01*
X0364922Y0171148D01*
X0366613Y0171148D01*
X0364672Y0171251D02*
X0006000Y0171251D01*
X0006000Y0172250D02*
X0362905Y0172250D01*
X0362058Y0173248D02*
X0165770Y0173248D01*
X0165227Y0173024D02*
X0167298Y0173881D01*
X0168882Y0175466D01*
X0169740Y0177537D01*
X0169740Y0179778D01*
X0168882Y0181849D01*
X0167298Y0183434D01*
X0165227Y0184291D01*
X0162986Y0184291D01*
X0160915Y0183434D01*
X0159330Y0181849D01*
X0158472Y0179778D01*
X0158472Y0177537D01*
X0159330Y0175466D01*
X0160915Y0173881D01*
X0162986Y0173024D01*
X0165227Y0173024D01*
X0167663Y0174247D02*
X0361644Y0174247D01*
X0361518Y0175245D02*
X0168662Y0175245D01*
X0169205Y0176244D02*
X0361518Y0176244D01*
X0361932Y0177242D02*
X0169618Y0177242D01*
X0169740Y0178241D02*
X0362601Y0178241D01*
X0363937Y0179239D02*
X0169740Y0179239D01*
X0169550Y0180238D02*
X0573000Y0180238D01*
X0573000Y0181237D02*
X0169136Y0181237D01*
X0168496Y0182235D02*
X0573000Y0182235D01*
X0573000Y0183234D02*
X0167498Y0183234D01*
X0165370Y0184232D02*
X0573000Y0184232D01*
X0573000Y0185231D02*
X0006000Y0185231D01*
X0006000Y0186229D02*
X0573000Y0186229D01*
X0573000Y0187228D02*
X0006000Y0187228D01*
X0006000Y0188226D02*
X0573000Y0188226D01*
X0573000Y0189225D02*
X0006000Y0189225D01*
X0006000Y0190223D02*
X0573000Y0190223D01*
X0573000Y0191222D02*
X0006000Y0191222D01*
X0006000Y0192220D02*
X0573000Y0192220D01*
X0573000Y0193219D02*
X0166458Y0193219D01*
X0167298Y0193566D02*
X0168882Y0195151D01*
X0169740Y0197222D01*
X0169740Y0199463D01*
X0168882Y0201534D01*
X0167298Y0203119D01*
X0165227Y0203976D01*
X0162986Y0203976D01*
X0160915Y0203119D01*
X0159330Y0201534D01*
X0158472Y0199463D01*
X0158472Y0197222D01*
X0159330Y0195151D01*
X0160915Y0193566D01*
X0162986Y0192709D01*
X0165227Y0192709D01*
X0167298Y0193566D01*
X0167948Y0194217D02*
X0573000Y0194217D01*
X0573000Y0195216D02*
X0168909Y0195216D01*
X0169323Y0196214D02*
X0573000Y0196214D01*
X0573000Y0197213D02*
X0169736Y0197213D01*
X0169740Y0198211D02*
X0573000Y0198211D01*
X0573000Y0199210D02*
X0169740Y0199210D01*
X0169432Y0200208D02*
X0573000Y0200208D01*
X0573000Y0201207D02*
X0169018Y0201207D01*
X0168211Y0202205D02*
X0573000Y0202205D01*
X0573000Y0203204D02*
X0167092Y0203204D01*
X0161120Y0203204D02*
X0117880Y0203204D01*
X0118085Y0203119D02*
X0116014Y0203976D01*
X0113773Y0203976D01*
X0111702Y0203119D01*
X0110118Y0201534D01*
X0109260Y0199463D01*
X0109260Y0197222D01*
X0110118Y0195151D01*
X0111702Y0193566D01*
X0113773Y0192709D01*
X0116014Y0192709D01*
X0118085Y0193566D01*
X0119670Y0195151D01*
X0120528Y0197222D01*
X0120528Y0199463D01*
X0119670Y0201534D01*
X0118085Y0203119D01*
X0118998Y0202205D02*
X0160002Y0202205D01*
X0159195Y0201207D02*
X0119805Y0201207D01*
X0120219Y0200208D02*
X0158781Y0200208D01*
X0158472Y0199210D02*
X0120528Y0199210D01*
X0120528Y0198211D02*
X0158472Y0198211D01*
X0158476Y0197213D02*
X0120524Y0197213D01*
X0120110Y0196214D02*
X0158890Y0196214D01*
X0159303Y0195216D02*
X0119697Y0195216D01*
X0118736Y0194217D02*
X0160264Y0194217D01*
X0161754Y0193219D02*
X0117246Y0193219D01*
X0112542Y0193219D02*
X0006000Y0193219D01*
X0006000Y0194217D02*
X0111052Y0194217D01*
X0110091Y0195216D02*
X0006000Y0195216D01*
X0006000Y0196214D02*
X0109677Y0196214D01*
X0109264Y0197213D02*
X0006000Y0197213D01*
X0006000Y0198211D02*
X0109260Y0198211D01*
X0109260Y0199210D02*
X0006000Y0199210D01*
X0006000Y0200208D02*
X0109568Y0200208D01*
X0109982Y0201207D02*
X0006000Y0201207D01*
X0006000Y0202205D02*
X0110789Y0202205D01*
X0111908Y0203204D02*
X0006000Y0203204D01*
X0006000Y0204202D02*
X0573000Y0204202D01*
X0573000Y0205201D02*
X0006000Y0205201D01*
X0006000Y0206199D02*
X0573000Y0206199D01*
X0573000Y0207198D02*
X0006000Y0207198D01*
X0006000Y0208196D02*
X0573000Y0208196D01*
X0573000Y0209195D02*
X0006000Y0209195D01*
X0006000Y0210193D02*
X0573000Y0210193D01*
X0573000Y0211192D02*
X0006000Y0211192D01*
X0006000Y0212190D02*
X0573000Y0212190D01*
X0573000Y0213189D02*
X0006000Y0213189D01*
X0006000Y0214187D02*
X0573000Y0214187D01*
X0573000Y0215186D02*
X0006000Y0215186D01*
X0006000Y0216184D02*
X0573000Y0216184D01*
X0573000Y0217183D02*
X0006000Y0217183D01*
X0006000Y0218181D02*
X0573000Y0218181D01*
X0573000Y0219180D02*
X0006000Y0219180D01*
X0006000Y0220178D02*
X0573000Y0220178D01*
X0573000Y0221177D02*
X0006000Y0221177D01*
X0006000Y0222175D02*
X0573000Y0222175D01*
X0573000Y0223174D02*
X0365590Y0223174D01*
X0365227Y0223024D02*
X0367298Y0223881D01*
X0368882Y0225466D01*
X0369740Y0227537D01*
X0369740Y0229778D01*
X0368882Y0231849D01*
X0367298Y0233434D01*
X0365227Y0234291D01*
X0362986Y0234291D01*
X0360915Y0233434D01*
X0359330Y0231849D01*
X0358472Y0229778D01*
X0358472Y0227537D01*
X0359330Y0225466D01*
X0360915Y0223881D01*
X0362986Y0223024D01*
X0365227Y0223024D01*
X0362623Y0223174D02*
X0316377Y0223174D01*
X0316014Y0223024D02*
X0318085Y0223881D01*
X0319670Y0225466D01*
X0320528Y0227537D01*
X0320528Y0229778D01*
X0319670Y0231849D01*
X0318085Y0233434D01*
X0316014Y0234291D01*
X0313773Y0234291D01*
X0311702Y0233434D01*
X0310118Y0231849D01*
X0309260Y0229778D01*
X0309260Y0227537D01*
X0310118Y0225466D01*
X0311702Y0223881D01*
X0313773Y0223024D01*
X0316014Y0223024D01*
X0313410Y0223174D02*
X0006000Y0223174D01*
X0006000Y0224172D02*
X0311411Y0224172D01*
X0310413Y0225171D02*
X0006000Y0225171D01*
X0006000Y0226170D02*
X0309826Y0226170D01*
X0309413Y0227168D02*
X0006000Y0227168D01*
X0006000Y0228167D02*
X0309260Y0228167D01*
X0309260Y0229165D02*
X0006000Y0229165D01*
X0006000Y0230164D02*
X0309420Y0230164D01*
X0309833Y0231162D02*
X0006000Y0231162D01*
X0006000Y0232161D02*
X0310429Y0232161D01*
X0311428Y0233159D02*
X0006000Y0233159D01*
X0006000Y0234158D02*
X0221640Y0234158D01*
X0221508Y0234212D02*
X0222933Y0233622D01*
X0224476Y0233622D01*
X0225901Y0234212D01*
X0226992Y0235303D01*
X0227583Y0236729D01*
X0227583Y0238271D01*
X0226992Y0239697D01*
X0225901Y0240788D01*
X0224476Y0241378D01*
X0222933Y0241378D01*
X0221508Y0240788D01*
X0220417Y0239697D01*
X0219827Y0238271D01*
X0219827Y0236729D01*
X0220417Y0235303D01*
X0221508Y0234212D01*
X0220564Y0235156D02*
X0006000Y0235156D01*
X0006000Y0236155D02*
X0220065Y0236155D01*
X0219827Y0237153D02*
X0006000Y0237153D01*
X0006000Y0238152D02*
X0219827Y0238152D01*
X0220191Y0239150D02*
X0006000Y0239150D01*
X0006000Y0240149D02*
X0220869Y0240149D01*
X0222376Y0241147D02*
X0006000Y0241147D01*
X0006000Y0242146D02*
X0573000Y0242146D01*
X0573000Y0243144D02*
X0366278Y0243144D01*
X0367298Y0243566D02*
X0368882Y0245151D01*
X0369740Y0247222D01*
X0369740Y0249463D01*
X0368882Y0251534D01*
X0367298Y0253119D01*
X0365227Y0253976D01*
X0362986Y0253976D01*
X0360915Y0253119D01*
X0359330Y0251534D01*
X0358472Y0249463D01*
X0358472Y0247222D01*
X0359330Y0245151D01*
X0360915Y0243566D01*
X0362986Y0242709D01*
X0365227Y0242709D01*
X0367298Y0243566D01*
X0367874Y0244143D02*
X0573000Y0244143D01*
X0573000Y0245141D02*
X0368872Y0245141D01*
X0369292Y0246140D02*
X0573000Y0246140D01*
X0573000Y0247138D02*
X0369705Y0247138D01*
X0369740Y0248137D02*
X0573000Y0248137D01*
X0573000Y0249135D02*
X0369740Y0249135D01*
X0369462Y0250134D02*
X0573000Y0250134D01*
X0573000Y0251132D02*
X0369049Y0251132D01*
X0368285Y0252131D02*
X0573000Y0252131D01*
X0573000Y0253129D02*
X0367272Y0253129D01*
X0360941Y0253129D02*
X0318059Y0253129D01*
X0318085Y0253119D02*
X0316014Y0253976D01*
X0313773Y0253976D01*
X0311702Y0253119D01*
X0310118Y0251534D01*
X0309260Y0249463D01*
X0309260Y0247222D01*
X0310118Y0245151D01*
X0311702Y0243566D01*
X0313773Y0242709D01*
X0316014Y0242709D01*
X0318085Y0243566D01*
X0319670Y0245151D01*
X0320528Y0247222D01*
X0320528Y0249463D01*
X0319670Y0251534D01*
X0318085Y0253119D01*
X0319073Y0252131D02*
X0359927Y0252131D01*
X0359164Y0251132D02*
X0319836Y0251132D01*
X0320250Y0250134D02*
X0358750Y0250134D01*
X0358472Y0249135D02*
X0320528Y0249135D01*
X0320528Y0248137D02*
X0358472Y0248137D01*
X0358507Y0247138D02*
X0320493Y0247138D01*
X0320079Y0246140D02*
X0358921Y0246140D01*
X0359340Y0245141D02*
X0319660Y0245141D01*
X0318661Y0244143D02*
X0360339Y0244143D01*
X0361934Y0243144D02*
X0317066Y0243144D01*
X0312722Y0243144D02*
X0006000Y0243144D01*
X0006000Y0244143D02*
X0311126Y0244143D01*
X0310128Y0245141D02*
X0006000Y0245141D01*
X0006000Y0246140D02*
X0309708Y0246140D01*
X0309294Y0247138D02*
X0006000Y0247138D01*
X0006000Y0248137D02*
X0309260Y0248137D01*
X0309260Y0249135D02*
X0006000Y0249135D01*
X0006000Y0250134D02*
X0309538Y0250134D01*
X0309951Y0251132D02*
X0006000Y0251132D01*
X0006000Y0252131D02*
X0310715Y0252131D01*
X0311728Y0253129D02*
X0006000Y0253129D01*
X0006000Y0254128D02*
X0573000Y0254128D01*
X0573000Y0255126D02*
X0006000Y0255126D01*
X0006000Y0256125D02*
X0573000Y0256125D01*
X0573000Y0257123D02*
X0006000Y0257123D01*
X0006000Y0258122D02*
X0573000Y0258122D01*
X0573000Y0259120D02*
X0006000Y0259120D01*
X0006000Y0260119D02*
X0573000Y0260119D01*
X0573000Y0261117D02*
X0006000Y0261117D01*
X0006000Y0262116D02*
X0573000Y0262116D01*
X0573000Y0263114D02*
X0006000Y0263114D01*
X0006000Y0264113D02*
X0573000Y0264113D01*
X0573000Y0265111D02*
X0006000Y0265111D01*
X0006000Y0266110D02*
X0573000Y0266110D01*
X0573000Y0267108D02*
X0006000Y0267108D01*
X0006000Y0268107D02*
X0573000Y0268107D01*
X0573000Y0269105D02*
X0006000Y0269105D01*
X0006000Y0270104D02*
X0573000Y0270104D01*
X0573000Y0271103D02*
X0006000Y0271103D01*
X0006000Y0272101D02*
X0573000Y0272101D01*
X0573000Y0273100D02*
X0006000Y0273100D01*
X0006000Y0274098D02*
X0573000Y0274098D01*
X0573000Y0275097D02*
X0006000Y0275097D01*
X0006000Y0276095D02*
X0573000Y0276095D01*
X0573000Y0277094D02*
X0006000Y0277094D01*
X0006000Y0278092D02*
X0573000Y0278092D01*
X0573000Y0279091D02*
X0006000Y0279091D01*
X0006000Y0280089D02*
X0573000Y0280089D01*
X0573000Y0281088D02*
X0006000Y0281088D01*
X0006000Y0282086D02*
X0573000Y0282086D01*
X0573000Y0283085D02*
X0006000Y0283085D01*
X0006000Y0284083D02*
X0573000Y0284083D01*
X0573000Y0285082D02*
X0006000Y0285082D01*
X0006000Y0286080D02*
X0573000Y0286080D01*
X0573000Y0287079D02*
X0006000Y0287079D01*
X0006000Y0288077D02*
X0573000Y0288077D01*
X0573000Y0289076D02*
X0006000Y0289076D01*
X0006000Y0290074D02*
X0573000Y0290074D01*
X0573000Y0291073D02*
X0006000Y0291073D01*
X0006000Y0292071D02*
X0141933Y0292071D01*
X0142105Y0292000D02*
X0143895Y0292000D01*
X0145549Y0292685D01*
X0146815Y0293951D01*
X0147500Y0295605D01*
X0147500Y0297395D01*
X0146815Y0299049D01*
X0145549Y0300315D01*
X0143895Y0301000D01*
X0142105Y0301000D01*
X0140451Y0300315D01*
X0139185Y0299049D01*
X0138500Y0297395D01*
X0138500Y0295605D01*
X0139185Y0293951D01*
X0140451Y0292685D01*
X0142105Y0292000D01*
X0144067Y0292071D02*
X0151933Y0292071D01*
X0152105Y0292000D02*
X0153895Y0292000D01*
X0155549Y0292685D01*
X0156815Y0293951D01*
X0157500Y0295605D01*
X0157500Y0297395D01*
X0156815Y0299049D01*
X0155549Y0300315D01*
X0153895Y0301000D01*
X0152105Y0301000D01*
X0150451Y0300315D01*
X0149185Y0299049D01*
X0148500Y0297395D01*
X0148500Y0295605D01*
X0149185Y0293951D01*
X0150451Y0292685D01*
X0152105Y0292000D01*
X0154067Y0292071D02*
X0161933Y0292071D01*
X0162105Y0292000D02*
X0163895Y0292000D01*
X0165549Y0292685D01*
X0166815Y0293951D01*
X0167500Y0295605D01*
X0167500Y0297395D01*
X0166815Y0299049D01*
X0165549Y0300315D01*
X0163895Y0301000D01*
X0162105Y0301000D01*
X0160451Y0300315D01*
X0159185Y0299049D01*
X0158500Y0297395D01*
X0158500Y0295605D01*
X0159185Y0293951D01*
X0160451Y0292685D01*
X0162105Y0292000D01*
X0164067Y0292071D02*
X0171933Y0292071D01*
X0172105Y0292000D02*
X0173895Y0292000D01*
X0175549Y0292685D01*
X0176815Y0293951D01*
X0177500Y0295605D01*
X0177500Y0297395D01*
X0176815Y0299049D01*
X0175549Y0300315D01*
X0173895Y0301000D01*
X0172105Y0301000D01*
X0170451Y0300315D01*
X0169185Y0299049D01*
X0168500Y0297395D01*
X0168500Y0295605D01*
X0169185Y0293951D01*
X0170451Y0292685D01*
X0172105Y0292000D01*
X0174067Y0292071D02*
X0181933Y0292071D01*
X0182105Y0292000D02*
X0183895Y0292000D01*
X0185549Y0292685D01*
X0186815Y0293951D01*
X0187500Y0295605D01*
X0187500Y0297395D01*
X0186815Y0299049D01*
X0185549Y0300315D01*
X0183895Y0301000D01*
X0182105Y0301000D01*
X0180451Y0300315D01*
X0179185Y0299049D01*
X0178500Y0297395D01*
X0178500Y0295605D01*
X0179185Y0293951D01*
X0180451Y0292685D01*
X0182105Y0292000D01*
X0184067Y0292071D02*
X0191933Y0292071D01*
X0192105Y0292000D02*
X0193895Y0292000D01*
X0195549Y0292685D01*
X0196815Y0293951D01*
X0197500Y0295605D01*
X0197500Y0297395D01*
X0196815Y0299049D01*
X0195549Y0300315D01*
X0193895Y0301000D01*
X0192105Y0301000D01*
X0190451Y0300315D01*
X0189185Y0299049D01*
X0188500Y0297395D01*
X0188500Y0295605D01*
X0189185Y0293951D01*
X0190451Y0292685D01*
X0192105Y0292000D01*
X0194067Y0292071D02*
X0379933Y0292071D01*
X0380105Y0292000D02*
X0381895Y0292000D01*
X0383549Y0292685D01*
X0384815Y0293951D01*
X0385500Y0295605D01*
X0385500Y0297395D01*
X0384815Y0299049D01*
X0383549Y0300315D01*
X0381895Y0301000D01*
X0380105Y0301000D01*
X0378451Y0300315D01*
X0377185Y0299049D01*
X0376500Y0297395D01*
X0376500Y0295605D01*
X0377185Y0293951D01*
X0378451Y0292685D01*
X0380105Y0292000D01*
X0382067Y0292071D02*
X0389933Y0292071D01*
X0390105Y0292000D02*
X0391895Y0292000D01*
X0393549Y0292685D01*
X0394815Y0293951D01*
X0395500Y0295605D01*
X0395500Y0297395D01*
X0394815Y0299049D01*
X0393549Y0300315D01*
X0391895Y0301000D01*
X0390105Y0301000D01*
X0388451Y0300315D01*
X0387185Y0299049D01*
X0386500Y0297395D01*
X0386500Y0295605D01*
X0387185Y0293951D01*
X0388451Y0292685D01*
X0390105Y0292000D01*
X0392067Y0292071D02*
X0399933Y0292071D01*
X0400105Y0292000D02*
X0401895Y0292000D01*
X0403549Y0292685D01*
X0404815Y0293951D01*
X0405500Y0295605D01*
X0405500Y0297395D01*
X0404815Y0299049D01*
X0403549Y0300315D01*
X0401895Y0301000D01*
X0400105Y0301000D01*
X0398451Y0300315D01*
X0397185Y0299049D01*
X0396500Y0297395D01*
X0396500Y0295605D01*
X0397185Y0293951D01*
X0398451Y0292685D01*
X0400105Y0292000D01*
X0402067Y0292071D02*
X0409933Y0292071D01*
X0410105Y0292000D02*
X0411895Y0292000D01*
X0413549Y0292685D01*
X0414815Y0293951D01*
X0415500Y0295605D01*
X0415500Y0297395D01*
X0414815Y0299049D01*
X0413549Y0300315D01*
X0411895Y0301000D01*
X0410105Y0301000D01*
X0408451Y0300315D01*
X0407185Y0299049D01*
X0406500Y0297395D01*
X0406500Y0295605D01*
X0407185Y0293951D01*
X0408451Y0292685D01*
X0410105Y0292000D01*
X0412067Y0292071D02*
X0419933Y0292071D01*
X0420105Y0292000D02*
X0421895Y0292000D01*
X0423549Y0292685D01*
X0424815Y0293951D01*
X0425500Y0295605D01*
X0425500Y0297395D01*
X0424815Y0299049D01*
X0423549Y0300315D01*
X0421895Y0301000D01*
X0420105Y0301000D01*
X0418451Y0300315D01*
X0417185Y0299049D01*
X0416500Y0297395D01*
X0416500Y0295605D01*
X0417185Y0293951D01*
X0418451Y0292685D01*
X0420105Y0292000D01*
X0422067Y0292071D02*
X0429933Y0292071D01*
X0430105Y0292000D02*
X0431895Y0292000D01*
X0433549Y0292685D01*
X0434815Y0293951D01*
X0435500Y0295605D01*
X0435500Y0297395D01*
X0434815Y0299049D01*
X0433549Y0300315D01*
X0431895Y0301000D01*
X0430105Y0301000D01*
X0428451Y0300315D01*
X0427185Y0299049D01*
X0426500Y0297395D01*
X0426500Y0295605D01*
X0427185Y0293951D01*
X0428451Y0292685D01*
X0430105Y0292000D01*
X0432067Y0292071D02*
X0573000Y0292071D01*
X0573000Y0293070D02*
X0433934Y0293070D01*
X0434864Y0294068D02*
X0573000Y0294068D01*
X0573000Y0295067D02*
X0435277Y0295067D01*
X0435500Y0296065D02*
X0573000Y0296065D01*
X0573000Y0297064D02*
X0435500Y0297064D01*
X0435224Y0298062D02*
X0573000Y0298062D01*
X0573000Y0299061D02*
X0434803Y0299061D01*
X0433805Y0300059D02*
X0573000Y0300059D01*
X0573000Y0301058D02*
X0006000Y0301058D01*
X0006000Y0302056D02*
X0573000Y0302056D01*
X0573000Y0241147D02*
X0250624Y0241147D01*
X0250067Y0241378D02*
X0248524Y0241378D01*
X0247099Y0240788D01*
X0246008Y0239697D01*
X0245417Y0238271D01*
X0245417Y0236729D01*
X0246008Y0235303D01*
X0247099Y0234212D01*
X0248524Y0233622D01*
X0250067Y0233622D01*
X0251492Y0234212D01*
X0252583Y0235303D01*
X0253173Y0236729D01*
X0253173Y0238271D01*
X0252583Y0239697D01*
X0251492Y0240788D01*
X0250067Y0241378D01*
X0247967Y0241147D02*
X0225033Y0241147D01*
X0226540Y0240149D02*
X0246460Y0240149D01*
X0245781Y0239150D02*
X0227219Y0239150D01*
X0227583Y0238152D02*
X0245417Y0238152D01*
X0245417Y0237153D02*
X0227583Y0237153D01*
X0227345Y0236155D02*
X0245655Y0236155D01*
X0246155Y0235156D02*
X0226845Y0235156D01*
X0225769Y0234158D02*
X0247231Y0234158D01*
X0251360Y0234158D02*
X0313450Y0234158D01*
X0316337Y0234158D02*
X0362663Y0234158D01*
X0360640Y0233159D02*
X0318360Y0233159D01*
X0319358Y0232161D02*
X0359642Y0232161D01*
X0359046Y0231162D02*
X0319954Y0231162D01*
X0320368Y0230164D02*
X0358632Y0230164D01*
X0358472Y0229165D02*
X0320528Y0229165D01*
X0320528Y0228167D02*
X0358472Y0228167D01*
X0358625Y0227168D02*
X0320375Y0227168D01*
X0319961Y0226170D02*
X0359039Y0226170D01*
X0359625Y0225171D02*
X0319375Y0225171D01*
X0318376Y0224172D02*
X0360624Y0224172D01*
X0367589Y0224172D02*
X0573000Y0224172D01*
X0573000Y0225171D02*
X0368587Y0225171D01*
X0369174Y0226170D02*
X0573000Y0226170D01*
X0573000Y0227168D02*
X0369587Y0227168D01*
X0369740Y0228167D02*
X0573000Y0228167D01*
X0573000Y0229165D02*
X0369740Y0229165D01*
X0369580Y0230164D02*
X0573000Y0230164D01*
X0573000Y0231162D02*
X0369167Y0231162D01*
X0368571Y0232161D02*
X0573000Y0232161D01*
X0573000Y0233159D02*
X0367572Y0233159D01*
X0365550Y0234158D02*
X0573000Y0234158D01*
X0573000Y0235156D02*
X0252436Y0235156D01*
X0252935Y0236155D02*
X0573000Y0236155D01*
X0573000Y0237153D02*
X0253173Y0237153D01*
X0253173Y0238152D02*
X0573000Y0238152D01*
X0573000Y0239150D02*
X0252809Y0239150D01*
X0252131Y0240149D02*
X0573000Y0240149D01*
X0573000Y0179239D02*
X0537598Y0179239D01*
X0538935Y0178241D02*
X0573000Y0178241D01*
X0573000Y0177242D02*
X0539604Y0177242D01*
X0540017Y0176244D02*
X0573000Y0176244D01*
X0573000Y0175245D02*
X0540018Y0175245D01*
X0539891Y0174247D02*
X0573000Y0174247D01*
X0573000Y0173248D02*
X0539478Y0173248D01*
X0538630Y0172250D02*
X0573000Y0172250D01*
X0573000Y0169254D02*
X0537563Y0169254D01*
X0538920Y0168256D02*
X0573000Y0168256D01*
X0573000Y0167257D02*
X0539598Y0167257D01*
X0540011Y0166259D02*
X0573000Y0166259D01*
X0573000Y0165260D02*
X0540018Y0165260D01*
X0539897Y0164262D02*
X0573000Y0164262D01*
X0573000Y0163263D02*
X0539484Y0163263D01*
X0538645Y0162265D02*
X0573000Y0162265D01*
X0533973Y0169254D02*
X0527563Y0169254D01*
X0528920Y0168256D02*
X0532616Y0168256D01*
X0531938Y0167257D02*
X0529598Y0167257D01*
X0530011Y0166259D02*
X0531524Y0166259D01*
X0531518Y0165260D02*
X0530018Y0165260D01*
X0529897Y0164262D02*
X0531638Y0164262D01*
X0532052Y0163263D02*
X0529484Y0163263D01*
X0528645Y0162265D02*
X0532890Y0162265D01*
X0532905Y0172250D02*
X0528630Y0172250D01*
X0529478Y0173248D02*
X0532058Y0173248D01*
X0531644Y0174247D02*
X0529891Y0174247D01*
X0530018Y0175245D02*
X0531518Y0175245D01*
X0531518Y0176244D02*
X0530017Y0176244D01*
X0529604Y0177242D02*
X0531932Y0177242D01*
X0532601Y0178241D02*
X0528935Y0178241D01*
X0527598Y0179239D02*
X0533937Y0179239D01*
X0523937Y0179239D02*
X0517598Y0179239D01*
X0518935Y0178241D02*
X0522601Y0178241D01*
X0521932Y0177242D02*
X0519604Y0177242D01*
X0520017Y0176244D02*
X0521518Y0176244D01*
X0521518Y0175245D02*
X0520018Y0175245D01*
X0519891Y0174247D02*
X0521644Y0174247D01*
X0522058Y0173248D02*
X0519478Y0173248D01*
X0518630Y0172250D02*
X0522905Y0172250D01*
X0523973Y0169254D02*
X0517562Y0169254D01*
X0518920Y0168256D02*
X0522616Y0168256D01*
X0521938Y0167257D02*
X0519598Y0167257D01*
X0520011Y0166259D02*
X0521524Y0166259D01*
X0521518Y0165260D02*
X0520018Y0165260D01*
X0519897Y0164262D02*
X0521638Y0164262D01*
X0522052Y0163263D02*
X0519484Y0163263D01*
X0518645Y0162265D02*
X0522890Y0162265D01*
X0512890Y0162265D02*
X0508645Y0162265D01*
X0509484Y0163263D02*
X0512052Y0163263D01*
X0511638Y0164262D02*
X0509897Y0164262D01*
X0510018Y0165260D02*
X0511518Y0165260D01*
X0511524Y0166259D02*
X0510011Y0166259D01*
X0509598Y0167257D02*
X0511938Y0167257D01*
X0512616Y0168256D02*
X0508920Y0168256D01*
X0507562Y0169254D02*
X0513973Y0169254D01*
X0512905Y0172250D02*
X0508630Y0172250D01*
X0509478Y0173248D02*
X0512058Y0173248D01*
X0511644Y0174247D02*
X0509891Y0174247D01*
X0510018Y0175245D02*
X0511518Y0175245D01*
X0511518Y0176244D02*
X0510017Y0176244D01*
X0509604Y0177242D02*
X0511932Y0177242D01*
X0512601Y0178241D02*
X0508935Y0178241D01*
X0507598Y0179239D02*
X0513937Y0179239D01*
X0503937Y0179239D02*
X0497598Y0179239D01*
X0498935Y0178241D02*
X0502601Y0178241D01*
X0501932Y0177242D02*
X0499604Y0177242D01*
X0500017Y0176244D02*
X0501518Y0176244D01*
X0501518Y0175245D02*
X0500018Y0175245D01*
X0499891Y0174247D02*
X0501644Y0174247D01*
X0502058Y0173248D02*
X0499478Y0173248D01*
X0498630Y0172250D02*
X0502905Y0172250D01*
X0503973Y0169254D02*
X0497562Y0169254D01*
X0498920Y0168256D02*
X0502616Y0168256D01*
X0501938Y0167257D02*
X0499598Y0167257D01*
X0500011Y0166259D02*
X0501524Y0166259D01*
X0501518Y0165260D02*
X0500018Y0165260D01*
X0499897Y0164262D02*
X0501638Y0164262D01*
X0502052Y0163263D02*
X0499484Y0163263D01*
X0498645Y0162265D02*
X0502890Y0162265D01*
X0476143Y0162265D02*
X0475393Y0162265D01*
X0475393Y0163263D02*
X0476143Y0163263D01*
X0472890Y0162265D02*
X0468645Y0162265D01*
X0469484Y0163263D02*
X0472085Y0163263D01*
X0471668Y0164262D02*
X0469897Y0164262D01*
X0452905Y0172250D02*
X0448630Y0172250D01*
X0449478Y0173248D02*
X0452058Y0173248D01*
X0451644Y0174247D02*
X0449891Y0174247D01*
X0450018Y0175245D02*
X0451518Y0175245D01*
X0451518Y0176244D02*
X0450017Y0176244D01*
X0449604Y0177242D02*
X0451932Y0177242D01*
X0452601Y0178241D02*
X0448935Y0178241D01*
X0447598Y0179239D02*
X0453937Y0179239D01*
X0443937Y0179239D02*
X0437598Y0179239D01*
X0438935Y0178241D02*
X0442601Y0178241D01*
X0441932Y0177242D02*
X0439604Y0177242D01*
X0440017Y0176244D02*
X0441518Y0176244D01*
X0441518Y0175245D02*
X0440018Y0175245D01*
X0439891Y0174247D02*
X0441644Y0174247D01*
X0442058Y0173248D02*
X0439478Y0173248D01*
X0438630Y0172250D02*
X0442905Y0172250D01*
X0443973Y0169254D02*
X0437562Y0169254D01*
X0438920Y0168256D02*
X0442616Y0168256D01*
X0441938Y0167257D02*
X0439598Y0167257D01*
X0440011Y0166259D02*
X0441524Y0166259D01*
X0441518Y0165260D02*
X0440018Y0165260D01*
X0439897Y0164262D02*
X0441638Y0164262D01*
X0442052Y0163263D02*
X0439484Y0163263D01*
X0438645Y0162265D02*
X0442890Y0162265D01*
X0432890Y0162265D02*
X0428645Y0162265D01*
X0429484Y0163263D02*
X0432052Y0163263D01*
X0431638Y0164262D02*
X0429897Y0164262D01*
X0430018Y0165260D02*
X0431518Y0165260D01*
X0431524Y0166259D02*
X0430011Y0166259D01*
X0429598Y0167257D02*
X0431938Y0167257D01*
X0432616Y0168256D02*
X0428920Y0168256D01*
X0427562Y0169254D02*
X0433973Y0169254D01*
X0432905Y0172250D02*
X0428630Y0172250D01*
X0429478Y0173248D02*
X0432058Y0173248D01*
X0431644Y0174247D02*
X0429891Y0174247D01*
X0430018Y0175245D02*
X0431518Y0175245D01*
X0431518Y0176244D02*
X0430017Y0176244D01*
X0429604Y0177242D02*
X0431932Y0177242D01*
X0432601Y0178241D02*
X0428935Y0178241D01*
X0427598Y0179239D02*
X0433937Y0179239D01*
X0423937Y0179239D02*
X0417598Y0179239D01*
X0418935Y0178241D02*
X0422601Y0178241D01*
X0421932Y0177242D02*
X0419604Y0177242D01*
X0420017Y0176244D02*
X0421518Y0176244D01*
X0421518Y0175245D02*
X0420018Y0175245D01*
X0419891Y0174247D02*
X0421644Y0174247D01*
X0422058Y0173248D02*
X0419478Y0173248D01*
X0418630Y0172250D02*
X0422905Y0172250D01*
X0423973Y0169254D02*
X0417562Y0169254D01*
X0418920Y0168256D02*
X0422616Y0168256D01*
X0421938Y0167257D02*
X0419598Y0167257D01*
X0420011Y0166259D02*
X0421524Y0166259D01*
X0421518Y0165260D02*
X0420018Y0165260D01*
X0419897Y0164262D02*
X0421638Y0164262D01*
X0422052Y0163263D02*
X0419484Y0163263D01*
X0418645Y0162265D02*
X0422890Y0162265D01*
X0412890Y0162265D02*
X0408645Y0162265D01*
X0409484Y0163263D02*
X0412052Y0163263D01*
X0411638Y0164262D02*
X0409897Y0164262D01*
X0410018Y0165260D02*
X0411518Y0165260D01*
X0411524Y0166259D02*
X0410011Y0166259D01*
X0409598Y0167257D02*
X0411938Y0167257D01*
X0412616Y0168256D02*
X0408920Y0168256D01*
X0407562Y0169254D02*
X0413973Y0169254D01*
X0412905Y0172250D02*
X0408630Y0172250D01*
X0409478Y0173248D02*
X0412058Y0173248D01*
X0411644Y0174247D02*
X0409891Y0174247D01*
X0410018Y0175245D02*
X0411518Y0175245D01*
X0411518Y0176244D02*
X0410017Y0176244D01*
X0409604Y0177242D02*
X0411932Y0177242D01*
X0412601Y0178241D02*
X0408935Y0178241D01*
X0407598Y0179239D02*
X0413937Y0179239D01*
X0403937Y0179239D02*
X0397598Y0179239D01*
X0398935Y0178241D02*
X0402601Y0178241D01*
X0401932Y0177242D02*
X0399604Y0177242D01*
X0400017Y0176244D02*
X0401518Y0176244D01*
X0401518Y0175245D02*
X0400018Y0175245D01*
X0399891Y0174247D02*
X0401644Y0174247D01*
X0402058Y0173248D02*
X0399478Y0173248D01*
X0398630Y0172250D02*
X0402905Y0172250D01*
X0403973Y0169254D02*
X0397562Y0169254D01*
X0398920Y0168256D02*
X0402616Y0168256D01*
X0401938Y0167257D02*
X0399598Y0167257D01*
X0400011Y0166259D02*
X0401524Y0166259D01*
X0401518Y0165260D02*
X0400018Y0165260D01*
X0399897Y0164262D02*
X0401638Y0164262D01*
X0402052Y0163263D02*
X0399484Y0163263D01*
X0398645Y0162265D02*
X0402890Y0162265D01*
X0393973Y0169254D02*
X0387562Y0169254D01*
X0388920Y0168256D02*
X0392616Y0168256D01*
X0391938Y0167257D02*
X0389598Y0167257D01*
X0390011Y0166259D02*
X0391524Y0166259D01*
X0391518Y0165260D02*
X0390018Y0165260D01*
X0389897Y0164262D02*
X0391638Y0164262D01*
X0392052Y0163263D02*
X0389484Y0163263D01*
X0388645Y0162265D02*
X0392890Y0162265D01*
X0382890Y0162265D02*
X0378645Y0162265D01*
X0379484Y0163263D02*
X0382052Y0163263D01*
X0381638Y0164262D02*
X0379897Y0164262D01*
X0380018Y0165260D02*
X0381518Y0165260D01*
X0381524Y0166259D02*
X0380011Y0166259D01*
X0379598Y0167257D02*
X0381938Y0167257D01*
X0382616Y0168256D02*
X0378920Y0168256D01*
X0377562Y0169254D02*
X0383973Y0169254D01*
X0382905Y0172250D02*
X0378630Y0172250D01*
X0379478Y0173248D02*
X0382058Y0173248D01*
X0381644Y0174247D02*
X0379891Y0174247D01*
X0380018Y0175245D02*
X0381518Y0175245D01*
X0381518Y0176244D02*
X0380017Y0176244D01*
X0379604Y0177242D02*
X0381932Y0177242D01*
X0382601Y0178241D02*
X0378935Y0178241D01*
X0377598Y0179239D02*
X0383937Y0179239D01*
X0387598Y0179239D02*
X0393937Y0179239D01*
X0392601Y0178241D02*
X0388935Y0178241D01*
X0389604Y0177242D02*
X0391932Y0177242D01*
X0391518Y0176244D02*
X0390017Y0176244D01*
X0390018Y0175245D02*
X0391518Y0175245D01*
X0391644Y0174247D02*
X0389891Y0174247D01*
X0389478Y0173248D02*
X0392058Y0173248D01*
X0392905Y0172250D02*
X0388630Y0172250D01*
X0373973Y0169254D02*
X0367562Y0169254D01*
X0368920Y0168256D02*
X0372616Y0168256D01*
X0371938Y0167257D02*
X0369598Y0167257D01*
X0370011Y0166259D02*
X0371524Y0166259D01*
X0371518Y0165260D02*
X0370018Y0165260D01*
X0369897Y0164262D02*
X0371638Y0164262D01*
X0372052Y0163263D02*
X0369484Y0163263D01*
X0368645Y0162265D02*
X0372890Y0162265D01*
X0372905Y0172250D02*
X0368630Y0172250D01*
X0369478Y0173248D02*
X0372058Y0173248D01*
X0371644Y0174247D02*
X0369891Y0174247D01*
X0370018Y0175245D02*
X0371518Y0175245D01*
X0371518Y0176244D02*
X0370017Y0176244D01*
X0369604Y0177242D02*
X0371932Y0177242D01*
X0372601Y0178241D02*
X0368935Y0178241D01*
X0367598Y0179239D02*
X0373937Y0179239D01*
X0377239Y0079388D02*
X0384296Y0079388D01*
X0382750Y0078390D02*
X0378786Y0078390D01*
X0379542Y0077391D02*
X0381993Y0077391D01*
X0381580Y0076393D02*
X0379956Y0076393D01*
X0380018Y0075394D02*
X0381518Y0075394D01*
X0381583Y0074396D02*
X0379953Y0074396D01*
X0379539Y0073397D02*
X0381996Y0073397D01*
X0382756Y0072399D02*
X0378779Y0072399D01*
X0388779Y0072399D02*
X0392756Y0072399D01*
X0391996Y0073397D02*
X0389539Y0073397D01*
X0389953Y0074396D02*
X0391583Y0074396D01*
X0391518Y0075394D02*
X0390018Y0075394D01*
X0389956Y0076393D02*
X0391580Y0076393D01*
X0391993Y0077391D02*
X0389542Y0077391D01*
X0388786Y0078390D02*
X0392750Y0078390D01*
X0394296Y0079388D02*
X0387239Y0079388D01*
X0397239Y0079388D02*
X0404296Y0079388D01*
X0402750Y0078390D02*
X0398786Y0078390D01*
X0399542Y0077391D02*
X0401993Y0077391D01*
X0401580Y0076393D02*
X0399956Y0076393D01*
X0400018Y0075394D02*
X0401518Y0075394D01*
X0401583Y0074396D02*
X0399953Y0074396D01*
X0399539Y0073397D02*
X0401996Y0073397D01*
X0402756Y0072399D02*
X0398779Y0072399D01*
X0408779Y0072399D02*
X0412756Y0072399D01*
X0411996Y0073397D02*
X0409539Y0073397D01*
X0409953Y0074396D02*
X0411583Y0074396D01*
X0411518Y0075394D02*
X0410018Y0075394D01*
X0409956Y0076393D02*
X0411580Y0076393D01*
X0411993Y0077391D02*
X0409542Y0077391D01*
X0408786Y0078390D02*
X0412750Y0078390D01*
X0414296Y0079388D02*
X0407239Y0079388D01*
X0417239Y0079388D02*
X0424297Y0079388D01*
X0425393Y0079388D02*
X0426143Y0079388D01*
X0426143Y0079641D02*
X0426763Y0079543D01*
X0427399Y0079336D01*
X0427995Y0079033D01*
X0428536Y0078639D01*
X0429009Y0078166D01*
X0429403Y0077625D01*
X0429706Y0077029D01*
X0429913Y0076393D01*
X0430011Y0075773D01*
X0426143Y0075773D01*
X0426143Y0079641D01*
X0427239Y0079388D02*
X0434296Y0079388D01*
X0432750Y0078390D02*
X0428786Y0078390D01*
X0429522Y0077391D02*
X0431993Y0077391D01*
X0431580Y0076393D02*
X0429913Y0076393D01*
X0431518Y0075394D02*
X0426143Y0075394D01*
X0425393Y0075394D02*
X0420018Y0075394D01*
X0419953Y0074396D02*
X0421625Y0074396D01*
X0422017Y0073397D02*
X0419539Y0073397D01*
X0418779Y0072399D02*
X0422756Y0072399D01*
X0425393Y0072399D02*
X0426143Y0072399D01*
X0426143Y0073397D02*
X0425393Y0073397D01*
X0425393Y0074396D02*
X0426143Y0074396D01*
X0426143Y0076393D02*
X0425393Y0076393D01*
X0425393Y0077391D02*
X0426143Y0077391D01*
X0426143Y0078390D02*
X0425393Y0078390D01*
X0422750Y0078390D02*
X0418786Y0078390D01*
X0419542Y0077391D02*
X0422014Y0077391D01*
X0421622Y0076393D02*
X0419956Y0076393D01*
X0417203Y0069403D02*
X0424332Y0069403D01*
X0422764Y0068405D02*
X0418771Y0068405D01*
X0419536Y0067406D02*
X0422000Y0067406D01*
X0421586Y0066408D02*
X0419949Y0066408D01*
X0420018Y0065409D02*
X0421518Y0065409D01*
X0421576Y0064411D02*
X0419959Y0064411D01*
X0419545Y0063412D02*
X0421990Y0063412D01*
X0422741Y0062414D02*
X0418794Y0062414D01*
X0428779Y0072399D02*
X0432756Y0072399D01*
X0431996Y0073397D02*
X0429518Y0073397D01*
X0429911Y0074396D02*
X0431583Y0074396D01*
X0438779Y0072399D02*
X0442756Y0072399D01*
X0441996Y0073397D02*
X0439539Y0073397D01*
X0439953Y0074396D02*
X0441583Y0074396D01*
X0441518Y0075394D02*
X0440018Y0075394D01*
X0439956Y0076393D02*
X0441580Y0076393D01*
X0441993Y0077391D02*
X0439542Y0077391D01*
X0438786Y0078390D02*
X0442750Y0078390D01*
X0444296Y0079388D02*
X0437239Y0079388D01*
X0447239Y0079388D02*
X0454296Y0079388D01*
X0452750Y0078390D02*
X0448786Y0078390D01*
X0449542Y0077391D02*
X0451993Y0077391D01*
X0451580Y0076393D02*
X0449956Y0076393D01*
X0450018Y0075394D02*
X0451518Y0075394D01*
X0451583Y0074396D02*
X0449953Y0074396D01*
X0449539Y0073397D02*
X0451996Y0073397D01*
X0452756Y0072399D02*
X0448779Y0072399D01*
X0458779Y0072399D02*
X0462756Y0072399D01*
X0461996Y0073397D02*
X0459539Y0073397D01*
X0459953Y0074396D02*
X0461583Y0074396D01*
X0461518Y0075394D02*
X0460018Y0075394D01*
X0459956Y0076393D02*
X0461580Y0076393D01*
X0461993Y0077391D02*
X0459542Y0077391D01*
X0458786Y0078390D02*
X0462750Y0078390D01*
X0464296Y0079388D02*
X0457239Y0079388D01*
X0467239Y0079388D02*
X0474296Y0079388D01*
X0472750Y0078390D02*
X0468786Y0078390D01*
X0469542Y0077391D02*
X0471993Y0077391D01*
X0471580Y0076393D02*
X0469956Y0076393D01*
X0470018Y0075394D02*
X0471518Y0075394D01*
X0471583Y0074396D02*
X0469953Y0074396D01*
X0469539Y0073397D02*
X0471996Y0073397D01*
X0472756Y0072399D02*
X0468779Y0072399D01*
X0478779Y0072399D02*
X0482756Y0072399D01*
X0481996Y0073397D02*
X0479539Y0073397D01*
X0479953Y0074396D02*
X0481583Y0074396D01*
X0481518Y0075394D02*
X0480018Y0075394D01*
X0479956Y0076393D02*
X0481580Y0076393D01*
X0481993Y0077391D02*
X0479542Y0077391D01*
X0478786Y0078390D02*
X0482750Y0078390D01*
X0484296Y0079388D02*
X0477239Y0079388D01*
X0487239Y0079388D02*
X0494296Y0079388D01*
X0492750Y0078390D02*
X0488786Y0078390D01*
X0489542Y0077391D02*
X0491993Y0077391D01*
X0491580Y0076393D02*
X0489956Y0076393D01*
X0490018Y0075394D02*
X0491518Y0075394D01*
X0491583Y0074396D02*
X0489953Y0074396D01*
X0489539Y0073397D02*
X0491996Y0073397D01*
X0492756Y0072399D02*
X0488779Y0072399D01*
X0498779Y0072399D02*
X0502756Y0072399D01*
X0501996Y0073397D02*
X0499539Y0073397D01*
X0499953Y0074396D02*
X0501583Y0074396D01*
X0501518Y0075394D02*
X0500018Y0075394D01*
X0499956Y0076393D02*
X0501580Y0076393D01*
X0501993Y0077391D02*
X0499542Y0077391D01*
X0498786Y0078390D02*
X0502750Y0078390D01*
X0504296Y0079388D02*
X0497239Y0079388D01*
X0507239Y0079388D02*
X0514296Y0079388D01*
X0512750Y0078390D02*
X0508786Y0078390D01*
X0509542Y0077391D02*
X0511993Y0077391D01*
X0511580Y0076393D02*
X0509956Y0076393D01*
X0510018Y0075394D02*
X0511518Y0075394D01*
X0511583Y0074396D02*
X0509953Y0074396D01*
X0509539Y0073397D02*
X0511996Y0073397D01*
X0512756Y0072399D02*
X0508779Y0072399D01*
X0518779Y0072399D02*
X0522756Y0072399D01*
X0521996Y0073397D02*
X0519539Y0073397D01*
X0519953Y0074396D02*
X0521583Y0074396D01*
X0521518Y0075394D02*
X0520018Y0075394D01*
X0519956Y0076393D02*
X0521580Y0076393D01*
X0521993Y0077391D02*
X0519542Y0077391D01*
X0518786Y0078390D02*
X0522750Y0078390D01*
X0524296Y0079388D02*
X0517239Y0079388D01*
X0527239Y0079388D02*
X0534296Y0079388D01*
X0532750Y0078390D02*
X0528786Y0078390D01*
X0529542Y0077391D02*
X0531993Y0077391D01*
X0531580Y0076393D02*
X0529956Y0076393D01*
X0530018Y0075394D02*
X0531518Y0075394D01*
X0531583Y0074396D02*
X0529953Y0074396D01*
X0529539Y0073397D02*
X0531996Y0073397D01*
X0532756Y0072399D02*
X0528779Y0072399D01*
X0538779Y0072399D02*
X0573000Y0072399D01*
X0573000Y0073397D02*
X0539539Y0073397D01*
X0539953Y0074396D02*
X0573000Y0074396D01*
X0573000Y0075394D02*
X0540018Y0075394D01*
X0539956Y0076393D02*
X0573000Y0076393D01*
X0573000Y0077391D02*
X0539542Y0077391D01*
X0538786Y0078390D02*
X0573000Y0078390D01*
X0573000Y0079388D02*
X0537239Y0079388D01*
X0428066Y0293070D02*
X0423934Y0293070D01*
X0424864Y0294068D02*
X0427136Y0294068D01*
X0426723Y0295067D02*
X0425277Y0295067D01*
X0425500Y0296065D02*
X0426500Y0296065D01*
X0426500Y0297064D02*
X0425500Y0297064D01*
X0425224Y0298062D02*
X0426776Y0298062D01*
X0427197Y0299061D02*
X0424803Y0299061D01*
X0423805Y0300059D02*
X0428195Y0300059D01*
X0418195Y0300059D02*
X0413805Y0300059D01*
X0414803Y0299061D02*
X0417197Y0299061D01*
X0416776Y0298062D02*
X0415224Y0298062D01*
X0415500Y0297064D02*
X0416500Y0297064D01*
X0416500Y0296065D02*
X0415500Y0296065D01*
X0415277Y0295067D02*
X0416723Y0295067D01*
X0417136Y0294068D02*
X0414864Y0294068D01*
X0413934Y0293070D02*
X0418066Y0293070D01*
X0408066Y0293070D02*
X0403934Y0293070D01*
X0404864Y0294068D02*
X0407136Y0294068D01*
X0406723Y0295067D02*
X0405277Y0295067D01*
X0405500Y0296065D02*
X0406500Y0296065D01*
X0406500Y0297064D02*
X0405500Y0297064D01*
X0405224Y0298062D02*
X0406776Y0298062D01*
X0407197Y0299061D02*
X0404803Y0299061D01*
X0403805Y0300059D02*
X0408195Y0300059D01*
X0398195Y0300059D02*
X0393805Y0300059D01*
X0394803Y0299061D02*
X0397197Y0299061D01*
X0396776Y0298062D02*
X0395224Y0298062D01*
X0395500Y0297064D02*
X0396500Y0297064D01*
X0396500Y0296065D02*
X0395500Y0296065D01*
X0395277Y0295067D02*
X0396723Y0295067D01*
X0397136Y0294068D02*
X0394864Y0294068D01*
X0393934Y0293070D02*
X0398066Y0293070D01*
X0388066Y0293070D02*
X0383934Y0293070D01*
X0384864Y0294068D02*
X0387136Y0294068D01*
X0386723Y0295067D02*
X0385277Y0295067D01*
X0385500Y0296065D02*
X0386500Y0296065D01*
X0386500Y0297064D02*
X0385500Y0297064D01*
X0385224Y0298062D02*
X0386776Y0298062D01*
X0387197Y0299061D02*
X0384803Y0299061D01*
X0383805Y0300059D02*
X0388195Y0300059D01*
X0378195Y0300059D02*
X0195805Y0300059D01*
X0196803Y0299061D02*
X0377197Y0299061D01*
X0376776Y0298062D02*
X0197224Y0298062D01*
X0197500Y0297064D02*
X0376500Y0297064D01*
X0376500Y0296065D02*
X0197500Y0296065D01*
X0197277Y0295067D02*
X0376723Y0295067D01*
X0377136Y0294068D02*
X0196864Y0294068D01*
X0195934Y0293070D02*
X0378066Y0293070D01*
X0190066Y0293070D02*
X0185934Y0293070D01*
X0186864Y0294068D02*
X0189136Y0294068D01*
X0188723Y0295067D02*
X0187277Y0295067D01*
X0187500Y0296065D02*
X0188500Y0296065D01*
X0188500Y0297064D02*
X0187500Y0297064D01*
X0187224Y0298062D02*
X0188776Y0298062D01*
X0189197Y0299061D02*
X0186803Y0299061D01*
X0185805Y0300059D02*
X0190195Y0300059D01*
X0180195Y0300059D02*
X0175805Y0300059D01*
X0176803Y0299061D02*
X0179197Y0299061D01*
X0178776Y0298062D02*
X0177224Y0298062D01*
X0177500Y0297064D02*
X0178500Y0297064D01*
X0178500Y0296065D02*
X0177500Y0296065D01*
X0177277Y0295067D02*
X0178723Y0295067D01*
X0179136Y0294068D02*
X0176864Y0294068D01*
X0175934Y0293070D02*
X0180066Y0293070D01*
X0170066Y0293070D02*
X0165934Y0293070D01*
X0166864Y0294068D02*
X0169136Y0294068D01*
X0168723Y0295067D02*
X0167277Y0295067D01*
X0167500Y0296065D02*
X0168500Y0296065D01*
X0168500Y0297064D02*
X0167500Y0297064D01*
X0167224Y0298062D02*
X0168776Y0298062D01*
X0169197Y0299061D02*
X0166803Y0299061D01*
X0165805Y0300059D02*
X0170195Y0300059D01*
X0160195Y0300059D02*
X0155805Y0300059D01*
X0156803Y0299061D02*
X0159197Y0299061D01*
X0158776Y0298062D02*
X0157224Y0298062D01*
X0157500Y0297064D02*
X0158500Y0297064D01*
X0158500Y0296065D02*
X0157500Y0296065D01*
X0157277Y0295067D02*
X0158723Y0295067D01*
X0159136Y0294068D02*
X0156864Y0294068D01*
X0155934Y0293070D02*
X0160066Y0293070D01*
X0150066Y0293070D02*
X0145934Y0293070D01*
X0146864Y0294068D02*
X0149136Y0294068D01*
X0148723Y0295067D02*
X0147277Y0295067D01*
X0147500Y0296065D02*
X0148500Y0296065D01*
X0148500Y0297064D02*
X0147500Y0297064D01*
X0147224Y0298062D02*
X0148776Y0298062D01*
X0149197Y0299061D02*
X0146803Y0299061D01*
X0145805Y0300059D02*
X0150195Y0300059D01*
X0140195Y0300059D02*
X0006000Y0300059D01*
X0006000Y0299061D02*
X0139197Y0299061D01*
X0138776Y0298062D02*
X0006000Y0298062D01*
X0006000Y0297064D02*
X0138500Y0297064D01*
X0138500Y0296065D02*
X0006000Y0296065D01*
X0006000Y0295067D02*
X0138723Y0295067D01*
X0139136Y0294068D02*
X0006000Y0294068D01*
X0006000Y0293070D02*
X0140066Y0293070D01*
X0162843Y0184232D02*
X0116157Y0184232D01*
X0116014Y0184291D02*
X0113773Y0184291D01*
X0111702Y0183434D01*
X0110118Y0181849D01*
X0109260Y0179778D01*
X0109260Y0177537D01*
X0110118Y0175466D01*
X0111702Y0173881D01*
X0113773Y0173024D01*
X0116014Y0173024D01*
X0118085Y0173881D01*
X0119670Y0175466D01*
X0120528Y0177537D01*
X0120528Y0179778D01*
X0119670Y0181849D01*
X0118085Y0183434D01*
X0116014Y0184291D01*
X0113630Y0184232D02*
X0006000Y0184232D01*
X0006000Y0183234D02*
X0111502Y0183234D01*
X0110504Y0182235D02*
X0006000Y0182235D01*
X0006000Y0181237D02*
X0109864Y0181237D01*
X0109450Y0180238D02*
X0006000Y0180238D01*
X0006000Y0179239D02*
X0109260Y0179239D01*
X0109260Y0178241D02*
X0006000Y0178241D01*
X0006000Y0177242D02*
X0109382Y0177242D01*
X0109795Y0176244D02*
X0006000Y0176244D01*
X0006000Y0175245D02*
X0110338Y0175245D01*
X0111337Y0174247D02*
X0006000Y0174247D01*
X0006000Y0173248D02*
X0113230Y0173248D01*
X0116557Y0173248D02*
X0162443Y0173248D01*
X0160549Y0174247D02*
X0118451Y0174247D01*
X0119449Y0175245D02*
X0159551Y0175245D01*
X0159008Y0176244D02*
X0119992Y0176244D01*
X0120406Y0177242D02*
X0158594Y0177242D01*
X0158472Y0178241D02*
X0120528Y0178241D01*
X0120528Y0179239D02*
X0158472Y0179239D01*
X0158663Y0180238D02*
X0120337Y0180238D01*
X0119923Y0181237D02*
X0159077Y0181237D01*
X0159716Y0182235D02*
X0119284Y0182235D01*
X0118285Y0183234D02*
X0160715Y0183234D01*
D16*
X0092500Y0114500D03*
X0184500Y0112500D03*
X0283500Y0085500D03*
X0425768Y0165398D03*
M02*
